<svg class="main-svg" xmlns="http://www.w3.org/2000/svg" xmlns:xlink="http://www.w3.org/1999/xlink" width="700" height="450" style="" viewBox="0 0 700 450"><rect x="0" y="0" width="700" height="450" style="fill: rgb(255, 255, 255); fill-opacity: 1;"/><defs id="defs-da278f"><g class="clips"><clipPath class="plotclip" id="clipda278fxyplot"><rect width="523" height="270"/></clipPath><clipPath class="axesclip" id="clipda278fx"><rect x="80" y="0" width="523" height="450"/></clipPath><clipPath class="axesclip" id="clipda278fy"><rect x="0" y="100" width="700" height="270"/></clipPath><clipPath class="axesclip" id="clipda278fxy"><rect x="80" y="100" width="523" height="270"/></clipPath></g><g class="gradients"/></defs><g class="bglayer"><rect class="bg" x="80" y="100" width="523" height="270" style="fill: rgb(255, 255, 255); fill-opacity: 1; stroke-width: 0;"/></g><g class="layer-below"><g class="imagelayer"/><g class="shapelayer"/></g><g class="cartesianlayer"><g class="subplot xy"><g class="layer-subplot"><g class="shapelayer"/><g class="imagelayer"/></g><g class="gridlayer"><g class="x"><path class="xgrid crisp" d="M0,100v270" transform="translate(121.55,0)" style="stroke: rgb(238, 238, 238); stroke-opacity: 1; stroke-width: 1px;"/><path class="xgrid crisp" d="M0,100v270" transform="translate(208.96,0)" style="stroke: rgb(238, 238, 238); stroke-opacity: 1; stroke-width: 1px;"/><path class="xgrid crisp" d="M0,100v270" transform="translate(296.36,0)" style="stroke: rgb(238, 238, 238); stroke-opacity: 1; stroke-width: 1px;"/><path class="xgrid crisp" d="M0,100v270" transform="translate(385.2,0)" style="stroke: rgb(238, 238, 238); stroke-opacity: 1; stroke-width: 1px;"/><path class="xgrid crisp" d="M0,100v270" transform="translate(472.61,0)" style="stroke: rgb(238, 238, 238); stroke-opacity: 1; stroke-width: 1px;"/><path class="xgrid crisp" d="M0,100v270" transform="translate(560.01,0)" style="stroke: rgb(238, 238, 238); stroke-opacity: 1; stroke-width: 1px;"/></g><g class="y"><path class="ygrid crisp" d="M80,0h523" transform="translate(0,361.06)" style="stroke: rgb(238, 238, 238); stroke-opacity: 1; stroke-width: 1px;"/><path class="ygrid crisp" d="M80,0h523" transform="translate(0,314.57)" style="stroke: rgb(238, 238, 238); stroke-opacity: 1; stroke-width: 1px;"/><path class="ygrid crisp" d="M80,0h523" transform="translate(0,268.09000000000003)" style="stroke: rgb(238, 238, 238); stroke-opacity: 1; stroke-width: 1px;"/><path class="ygrid crisp" d="M80,0h523" transform="translate(0,221.61)" style="stroke: rgb(238, 238, 238); stroke-opacity: 1; stroke-width: 1px;"/><path class="ygrid crisp" d="M80,0h523" transform="translate(0,175.13)" style="stroke: rgb(238, 238, 238); stroke-opacity: 1; stroke-width: 1px;"/><path class="ygrid crisp" d="M80,0h523" transform="translate(0,128.65)" style="stroke: rgb(238, 238, 238); stroke-opacity: 1; stroke-width: 1px;"/></g></g><g class="zerolinelayer"/><path class="xlines-below"/><path class="ylines-below"/><g class="overlines-below"/><g class="xaxislayer-below"/><g class="yaxislayer-below"/><g class="overaxes-below"/><g class="plot" transform="translate(80, 100)" clip-path="url(#clipda278fxyplot)"><g class="imagelayer"/><g class="maplayer"/><g class="barlayer"/><g class="carpetlayer"/><g class="violinlayer"/><g class="boxlayer"/><g class="scatterlayer"><g class="trace scatter trace8dad22" style="stroke-miterlimit: 2; opacity: 0.8;"><path class="js-line" d="M0,157.79L4.3,156.43L5.73,155.08L10.03,156.43L11.46,156.77L14.33,156.1L15.76,155.42L18.63,155.08L20.06,155.25L31.52,157.28L32.96,157.45L34.39,157.45L35.82,156.43L40.12,156.94L41.55,156.77L44.42,156.77L45.85,157.11L51.58,157.11L53.02,157.11L54.45,157.11L55.88,158.12L61.61,158.63L63.05,158.29L64.48,156.94L65.91,156.77L68.78,156.77L70.21,155.59L78.81,155.59L80.24,154.23L83.11,152.88L84.54,151.19L88.84,148.15L90.27,147.3L98.87,143.92L100.3,142.4L103.17,136.65L104.6,135.46L107.47,133.94L108.9,130.22L111.76,128.19L113.2,127.34L118.93,124.13L120.36,123.45L123.23,122.61L124.66,121.09L134.69,117.2L136.12,115.5L138.99,115.34L140.42,114.49L141.85,113.48L143.29,111.45L146.15,109.75L147.59,109.08L150.45,109.08L151.88,108.06L156.18,106.37L157.62,106.37L159.05,105.86L160.48,101.3L163.35,98.25L164.78,97.75L167.65,95.21L169.08,94.7L171.95,93.01L173.38,93.01L176.24,91.83L177.68,92L186.27,89.46L187.71,86.75L189.14,86.41L190.57,85.23L197.74,84.05L199.17,82.36L200.6,81.17L202.04,81L206.33,78.95L207.77,77.75L210.63,76.89L212.07,76.38L219.23,75.69L220.66,74.84L224.96,73.64L226.39,68.15L227.83,66.27L229.26,66.1L232.13,64.04L233.56,61.26L239.29,57.97L240.72,57.62L243.59,56.06L245.02,55.71L250.75,55.01L252.19,55.19L256.48,52.93L257.92,53.28L262.22,54.67L263.65,55.53L266.52,55.71L267.95,56.58L277.98,61.61L279.41,62.83L280.84,63.35L282.28,62.31L285.14,62.31L286.58,62.65L292.31,65.41L293.74,66.1L296.61,67.64L298.04,66.27L300.9,66.78L302.34,67.12L305.2,66.1L306.64,66.27L308.07,67.12L309.5,64.9L319.53,67.29L320.96,62.83L323.83,62.65L325.26,62.83L328.13,62.83L329.56,63.17L338.16,66.44L339.59,66.61L351.05,71.24L352.49,71.07L356.79,73.46L358.22,75.01L365.38,78.61L366.82,77.06L369.68,78.09L371.12,78.26L373.98,80.15L375.41,80.83L376.85,79.98L378.28,81L388.31,84.89L389.74,85.91L395.47,89.29L396.91,89.97L398.34,90.64L399.77,89.46L409.8,94.7L411.24,95.04L415.53,96.73L416.97,97.24L418.4,96.9L419.83,97.41L435.59,103.16L437.03,103.84L448.49,108.4L449.92,107.22L451.36,108.23L452.79,107.72L455.65,108.91L457.09,107.89L472.85,113.31L474.28,112.97L481.45,113.98L482.88,114.49L490.04,117.2L491.48,117.53L497.21,119.06L498.64,118.04L501.51,119.73L502.94,115L505.81,114.49L507.24,113.98L510.1,112.8L511.54,112.8L517.27,112.63L518.7,112.8L521.57,112.29L523,111.11" style="vector-effect: non-scaling-stroke; fill: none; stroke: rgb(201, 228, 241); stroke-opacity: 1; stroke-width: 2px; opacity: 1;"/><g class="points"/></g><g class="trace scatter tracea469fb" style="stroke-miterlimit: 2; opacity: 0.8;"><path class="js-line" d="M0,111.11L5.73,111.11L7.16,111.28L10.03,111.45L11.46,111.45L18.63,113.31L20.06,113.64L25.79,115L27.22,114.66L31.52,115.34L32.96,115.67L37.25,116.86L38.69,116.52L45.85,117.2L47.28,117.37L50.15,117.7L51.58,116.52L58.75,117.03L60.18,117.2L63.05,118.04L64.48,117.2L78.81,118.55L80.24,117.2L88.84,117.7L90.27,117.53L91.7,115.34L93.14,115.34L97.44,115.67L98.87,115.17L110.33,113.64L111.76,112.8L113.2,112.8L114.63,109.59L118.93,105.19L120.36,104.17L124.66,102.14L126.09,100.45L128.96,96.56L130.39,95.89L136.12,92L137.56,90.3L150.45,63.17L151.88,61.44L154.75,57.79L156.18,56.06L160.48,52.06L161.92,52.06L164.78,50.5L166.21,50.33L170.51,49.98L171.95,49.98L179.11,49.46L180.54,49.8L187.71,49.98L189.14,49.63L192.01,50.15L193.44,50.33L194.87,51.02L196.3,53.62L197.74,52.58L199.17,52.76L202.04,53.8L203.47,53.8L206.33,53.62L207.77,53.97L209.2,53.28L210.63,53.97L212.07,53.8L213.5,51.89L214.93,54.84L216.36,55.19L217.8,55.01L219.23,52.76L222.1,51.37L223.53,51.02L230.69,52.24L232.13,51.19L236.42,51.71L237.86,52.24L239.29,52.58L240.72,50.5L243.59,51.19L245.02,50.5L247.89,51.54L249.32,51.71L253.62,52.76L255.05,53.45L259.35,55.01L260.78,55.01L263.65,56.92L265.08,53.97L266.52,57.27L267.95,58.14L276.55,60.05L277.98,60.74L286.58,63L288.01,63.7L295.17,66.61L296.61,66.95L298.04,66.95L299.47,69.69L305.2,73.98L306.64,75.35L308.07,70.55L309.5,70.89L313.8,73.46L315.23,75.52L318.1,75.69L319.53,76.55L320.96,77.58L322.4,77.23L328.13,81.17L329.56,81.85L338.16,86.75L339.59,88.11L342.46,90.98L343.89,90.3L345.32,90.98L346.76,92.84L351.05,96.22L352.49,96.22L353.92,96.06L355.35,97.41L365.38,103.5L366.82,103.5L372.55,106.88L373.98,107.89L378.28,108.4L379.71,108.74L382.58,109.42L384.01,108.23L389.74,110.77L391.18,112.63L398.34,118.72L399.77,118.72L405.5,123.28L406.94,124.13L412.67,126.67L414.1,128.02L415.53,126.61L416.97,129.71L421.27,132.42L422.7,133.09L427,136.31L428.43,136.65L437.03,142.57L438.46,142.57L449.92,149.5L451.36,150.68L458.52,153.9L459.95,148.65L461.39,155.76L462.82,155.93L469.98,159.31L471.42,159.31L487.18,166.07L488.61,166.58L490.04,165.9L491.48,166.41L500.07,168.27L501.51,169.46L507.24,169.12L508.67,169.63L510.1,170.47L511.54,170.3L518.7,173.01L520.13,173.85L521.57,174.46" style="vector-effect: non-scaling-stroke; fill: none; stroke: rgb(180, 217, 232); stroke-opacity: 1; stroke-width: 2px; opacity: 1;"/><g class="points"/></g><g class="trace scatter trace4e17e5" style="stroke-miterlimit: 2; opacity: 0.8;"><path class="js-line" d="M0,175.07L2.87,176.18L4.3,176.74L8.6,177.58L10.03,177.76L14.33,179.44L15.76,179.81L18.63,180.46L20.06,180.64L25.79,182.69L27.22,181.95L30.09,183.43L31.52,184.18L34.39,184.27L35.82,185.66L38.69,185.66L40.12,186.31L45.85,186.31L47.28,186.78L51.58,187.62L53.02,187.34L55.88,188.17L57.32,188.64L58.75,188.17L60.18,189.48L63.05,190.13L64.48,191.52L68.78,190.96L70.21,191.8L73.08,191.99L74.51,191.61L81.67,193.66L83.11,193.47L85.97,194.03L87.41,193.66L96,192.17L97.44,191.15L100.3,191.52L101.73,190.96L107.47,191.52L108.9,191.99L111.76,191.99L113.2,190.68L114.63,190.31L116.06,191.99L120.36,191.8L121.79,190.13L126.09,188.17L127.53,186.78L136.12,181.76L137.56,181.76L140.42,181.95L141.85,181.29L144.72,181.11L146.15,181.48L150.45,181.76L151.88,181.11L157.62,180.83L159.05,180.92L163.35,181.48L164.78,180.92L167.65,181.29L169.08,180.64L171.95,179.62L173.38,178.6L179.11,176.55L180.54,176.37L183.41,176.18L184.84,176.37L187.71,176.74L189.14,176.09L192.01,170.79L193.44,170.79L197.74,164.56L199.17,163.17L209.2,160.47L210.63,160.29L213.5,159.82L214.93,159.82L217.8,158.43L219.23,158.43L222.1,159.45L223.53,157.4L224.96,153.41L226.39,152.2L233.56,149.97L234.99,150.52L236.42,149.97L237.86,150.71L242.16,150.71L243.59,150.9L246.45,152.01L247.89,152.01L249.32,152.01L250.75,152.85L252.19,154.89L253.62,155.27L256.48,155.08L257.92,155.92L263.65,157.78L265.08,158.33L270.81,161.49L272.25,161.49L277.98,165.58L279.41,166.61L280.84,167.07L282.28,168.47L283.71,169.58L285.14,168.93L288.01,170.6L289.44,171.63L290.87,172.46L292.31,170.6L296.61,174.69L298.04,175.53L299.47,175.72L300.9,176.93L305.2,179.44L306.64,179.44L310.93,181.67L312.37,183.43L319.53,188.64L320.96,189.66L330.99,196.35L332.43,197.28L333.86,198.86L335.29,198.96L338.16,201.65L339.59,202.58L343.89,205.74L345.32,204.72L349.62,207.7L351.05,208.53L355.35,211.69L356.79,212.81L362.52,216.15L363.95,216.81L368.25,221.36L369.68,220.71L371.12,220.71L372.55,221.92L379.71,226.19L381.15,226.66L384.01,228.15L385.44,227.31L386.88,226.01L388.31,226.29L392.61,227.96L394.04,228.43L395.47,228.98L396.91,230.47L398.34,230.75L399.77,231.96L405.5,236.14L406.94,234.84L408.37,234.65L409.8,235.49L412.67,237.26L414.1,238.28L418.4,240.7L419.83,241.81L425.56,244.6L427,244.88L441.33,253.43L442.76,253.25L447.06,255.38L448.49,255.85L449.92,256.5L451.36,256.13L452.79,254.73L454.22,255.48L455.65,256.04L457.09,255.66L458.52,253.62L459.95,253.62L461.39,252.5L462.82,253.25L467.12,251.85L468.55,251.48L474.28,250.55L475.72,250.36L480.01,250.92L481.45,250.09L484.31,250.74L485.75,250.92L488.61,252.04L490.04,252.32L492.91,252.78L494.34,252.32L495.78,252.78L497.21,251.48L498.64,251.2L500.07,250.09L505.81,248.13L507.24,246.18L514.4,240.88L515.84,239.86L518.7,238.74L520.13,238.37L521.57,238.28" style="vector-effect: non-scaling-stroke; fill: none; stroke: rgb(159, 206, 222); stroke-opacity: 1; stroke-width: 2px; opacity: 1;"/><g class="points"/></g><g class="trace scatter tracec72d8e" style="stroke-miterlimit: 2; opacity: 0.8;"><path class="js-line" d="M0,238.28L1.43,234.56L2.87,233.91L4.3,231.96L5.73,231.77L10.03,230.1L11.46,229.45L18.63,228.15L20.06,228.15L22.93,227.96L24.36,227.78L30.09,227.5L31.52,226.85L35.82,227.12L37.25,226.47L38.69,226.29L40.12,226.94L54.45,230.75L55.88,230.47L58.75,229.82L60.18,229.63L65.91,229.82L67.35,229.26L70.21,227.96L71.64,228.15L74.51,227.78L75.94,225.54L77.38,223.41L78.81,224.06L80.24,224.34L81.67,223.68L83.11,223.03L84.54,223.41L85.97,223.68L87.41,222.01L91.7,220.43L93.14,219.41L94.57,219.78L96,219.22L104.6,217.08L106.03,216.9L108.9,215.78L110.33,214.48L111.76,213.18L113.2,210.21L123.23,187.99L124.66,185.94L127.53,178.04L128.96,175.53L136.12,163.54L137.56,162.33L140.42,159.45L141.85,158.15L143.29,157.31L144.72,153.41L149.02,146.99L150.45,145.97L153.32,144.76L154.75,144.57L159.05,143.09L160.48,141.04L164.78,139.56L166.21,138.16L170.51,135.93L171.95,135.65L173.38,135L174.81,132.12L179.11,129.7L180.54,129.24L183.41,128.03L184.84,127.66L186.27,127.19L187.71,125.52L193.44,122.82L194.87,122.82L200.6,122.26L202.04,121.61L204.9,121.06L206.33,120.78L207.77,120.59L209.2,117.15L217.8,110.64L219.23,109.9L224.96,108.41L226.39,107.2L230.69,106L232.13,104.51L234.99,100.79L236.42,99.95L239.29,99.95L240.72,99.95L245.02,98.28L246.45,95.86L249.32,89.26L250.75,88.61L256.48,87.22L257.92,87.59L260.78,87.78L262.22,88.8L263.65,89.08L265.08,90.29L277.98,96.89L279.41,97.91L282.28,99.4L283.71,100.42L286.58,102.18L288.01,103.49L293.74,105.35L295.17,106.37L303.77,111.57L305.2,111.48L308.07,113.34L309.5,113.34L310.93,112.78L312.37,113.15L319.53,113.8L320.96,113.43L323.83,113.8L325.26,114.64L329.56,115.66L330.99,116.69L333.86,118.55L335.29,118.17L341.02,122.45L342.46,123.29L345.32,125.52L346.76,125.98L348.19,127.38L349.62,126.63L352.49,128.4L353.92,129.24L359.65,131.75L361.08,132.77L366.82,136.12L368.25,137.14L371.12,137.32L372.55,137.97L379.71,142.44L381.15,140.21L382.58,140.86L384.01,140.58L386.88,141.88L388.31,140.21L399.77,145.97L401.21,146.81L404.07,146.81L405.5,147.83L409.8,149.87L411.24,148.48L412.67,149.87L414.1,149.97L418.4,149.87L419.83,150.99L421.27,149.87L422.7,149.97L427,152.01L428.43,151.83L431.3,146.81L432.73,145.97L435.59,143.27L437.03,142.07L439.89,140.58L441.33,140.39L444.19,138.53L445.62,138.81L451.36,138.16L452.79,138.35L455.65,139.37L457.09,139.83L458.52,139.65L459.95,140.58L461.39,140.86L462.82,137.7L474.28,137.51L475.72,136.95L480.01,136.95L481.45,136.95L482.88,137.7L484.31,137.32L487.18,135.84L488.61,136.49L494.34,135L495.78,133.98L497.21,133.79L498.64,131.19L501.51,130.35L502.94,126.35L505.81,120.78L507.24,119.01L511.54,115.2L512.97,111.76L518.7,107.86L520.13,107.58L521.57,106.74" style="vector-effect: non-scaling-stroke; fill: none; stroke: rgb(139, 195, 209); stroke-opacity: 1; stroke-width: 2px; opacity: 1;"/><g class="points"/></g><g class="trace scatter tracedfe39a" style="stroke-miterlimit: 2; opacity: 0.8;"><path class="js-line" d="M0,106L2.87,104.32L4.3,103.11L11.46,100.6L12.9,100.33L15.76,100.33L17.19,99.95L21.49,99.12L22.93,99.3L25.79,98.47L27.22,98.47L30.09,98.09L31.52,98.28L37.25,100.14L38.69,100.6L41.55,100.79L42.99,100.42L51.58,99.4L53.02,97.72L55.88,99.12L57.32,98.56L71.64,103.86L73.08,104.14L88.84,107.86L90.27,107.58L101.73,105.53L103.17,104.88L107.47,104.04L108.9,103.11L118.93,101.63L120.36,102.18L128.96,99.4L130.39,94.75L131.82,90.1L133.26,88.15L136.12,83.69L137.56,82.57L143.29,77.74L144.72,76.9L147.59,75.04L149.02,69.65L151.88,64.72L153.32,63.14L154.75,61.65L156.18,61.28L160.48,59.14L161.92,58.49L166.21,56.26L167.65,54.12L169.08,53.29L170.51,53.47L173.38,52.08L174.81,51.89L180.54,48.27L181.98,48.45L183.41,47.52L184.84,48.08L187.71,46.5L189.14,46.13L192.01,46.5L193.44,45.76L197.74,45.76L199.17,44.55L202.04,46.32L203.47,46.32L206.33,47.71L207.77,48.08L209.2,48.27L210.63,47.52L213.5,47.24L214.93,48.27L219.23,48.73L220.66,48.08L233.56,52.45L234.99,53.75L237.86,55.15L239.29,55.89L245.02,58.49L246.45,59.89L266.52,71.04L267.95,71.41L270.81,73.09L272.25,73L277.98,76.53L279.41,76.34L283.71,79.32L285.14,79.78L290.87,81.64L292.31,83.03L293.74,82.01L295.17,83.22L298.04,85.36L299.47,85.36L309.5,90.29L310.93,90.01L313.8,92.33L315.23,93.73L323.83,98.93L325.26,98.75L332.43,102.84L333.86,102.46L335.29,101.16L336.73,102.46L338.16,102.84L339.59,104.14L346.76,108.41L348.19,109.06L352.49,111.48L353.92,111.76L356.79,113.43L358.22,114.64L359.65,115.48L361.08,113.8L363.95,114.83L365.38,115.66L371.12,118.92L372.55,119.57L373.98,114.83L375.41,112.97L382.58,114.46L384.01,115.01L388.31,116.04L389.74,111.57L391.18,112.78L392.61,112.6L396.91,113.62L398.34,113.99L404.07,116.69L405.5,117.06L408.37,118.36L409.8,119.38L411.24,119.57L412.67,120.59L414.1,119.57L415.53,120.22L416.97,120.96L418.4,120.22L419.83,119.57L421.27,120.03L427,121.24L428.43,121.61L439.89,124.96L441.33,126.54L444.19,127.01L445.62,127.47L451.36,128.86L452.79,128.4L454.22,128.21L455.65,129.24L459.95,129.52L461.39,129.52L468.55,131.93L469.98,132.58L474.28,132.58L475.72,132.77L477.15,131.56L478.58,131.37L480.01,130.91L481.45,128.86L482.88,127.38L484.31,127.01L487.18,126.54L488.61,125.33L490.04,125.15L491.48,123.66L492.91,123.29L494.34,121.8L500.07,119.75L501.51,119.94L502.94,120.78L504.37,119.38L511.54,118.36L512.97,116.31L517.27,114.83L518.7,115.2L523,114.36" style="vector-effect: non-scaling-stroke; fill: none; stroke: rgb(120, 184, 196); stroke-opacity: 1; stroke-width: 2px; opacity: 1;"/><g class="points"/></g><g class="trace scatter trace88b366" style="stroke-miterlimit: 2; opacity: 0.8;"><path class="js-line" d="M0,113.8L2.87,113.34L4.3,111.57L5.73,111.29L7.16,109.71L11.46,106.93L12.9,107.02L18.63,104.32L20.06,99.77L22.93,97.26L24.36,97.07L30.09,95.03L31.52,93.17L32.96,93.73L34.39,93.35L37.25,91.49L38.69,90.84L48.72,88.98L50.15,88.61L57.32,86.57L58.75,85.08L65.91,81.64L67.35,80.15L74.51,76.71L75.94,76.34L81.67,74.85L83.11,74.85L87.41,73L88.84,72.81L94.57,71.41L96,70.02L98.87,69.37L100.3,69L103.17,67.98L104.6,67.6L110.33,66.77L111.76,66.3L116.06,65.74L117.5,64.72L121.79,63.7L123.23,62.96L126.09,55.05L127.53,53.66L130.39,49.1L131.82,43.71L134.69,38.04L136.12,36.46L141.85,33.21L143.29,32.74L160.48,32.37L161.92,27.72L164.78,25.21L166.21,24.84L167.65,23.54L169.08,23.91L170.51,23.73L171.95,22.52L177.68,22.15L179.11,22.7L183.41,23.35L184.84,23.73L200.6,28.09L202.04,29.21L204.9,29.86L206.33,29.58L207.77,29.86L209.2,31.16L213.5,32L214.93,32.19L219.23,33.58L220.66,33.39L224.96,34.51L226.39,35.16L234.99,39.06L236.42,39.44L237.86,40.83L239.29,41.02L255.05,50.5L256.48,51.06L257.92,50.5L259.35,52.26L266.52,56.73L267.95,56.08L269.38,56.73L270.81,55.52L279.41,59.05L280.84,60.07L283.71,60.72L285.14,59.89L286.58,59.33L288.01,59.7L290.87,61.28L292.31,62.49L296.61,65.09L298.04,64.91L303.77,68.35L305.2,68.63L309.5,70.76L310.93,71.79L315.23,74.48L316.67,75.32L322.4,79.32L323.83,78.11L326.7,79.78L328.13,80.34L332.43,83.87L333.86,84.52L341.02,89.08L342.46,89.45L349.62,90.1L351.05,90.84L353.92,91.96L355.35,92.8L361.08,95.58L362.52,96.61L368.25,99.58L369.68,98.75L371.12,98.93L372.55,97.91L375.41,98.75L376.85,99.4L384.01,105.53L385.44,105.35L388.31,107.76L389.74,107.02L394.04,109.25L395.47,110.09L399.77,111.76L401.21,108.6L402.64,97.72L404.07,95.68L405.5,95.21L406.94,93.54L409.8,90.47L411.24,82.2L412.67,76.53L414.1,74.11L415.53,73.46L416.97,71.79L419.83,69L421.27,67.79L422.7,65.93L424.13,65.56L427,57.75L428.43,56.26L431.3,54.12L432.73,53.75L437.03,52.73L438.46,52.54L442.76,51.89L444.19,51.34L447.06,51.06L448.49,49.85L457.09,48.27L458.52,45.66L461.39,43.99L462.82,43.9L464.25,43.53L465.68,41.95L467.12,39.99L468.55,39.44L471.42,40.18L472.85,40.37L475.72,41.02L477.15,39.44L480.01,37.67L481.45,37.67L488.61,36.93L490.04,37.11L491.48,36.09L492.91,36.28L495.78,36.28L497.21,35.9L498.64,36.28L500.07,34.88L512.97,35.16L514.4,33.21L515.84,30.98L517.27,30.23L518.7,29.68L520.13,27.17L521.57,26.79" style="vector-effect: non-scaling-stroke; fill: none; stroke: rgb(102, 172, 181); stroke-opacity: 1; stroke-width: 2px; opacity: 1;"/><g class="points"/></g><g class="trace scatter traceac3678" style="stroke-miterlimit: 2; opacity: 0.8;"><path class="js-line" d="M0,25.4L1.43,25.58L2.87,24.1L14.33,25.58L15.76,24.47L18.63,23.07L20.06,18.71L24.36,18.89L25.79,16.01L32.96,16.75L34.39,17.5L40.12,20.84L41.55,19.45L44.42,20.47L45.85,21.03L47.28,21.03L48.72,19.45L50.15,17.31L51.58,16.57L54.45,17.13L55.88,17.5L58.75,19.26L60.18,19.08L63.05,21.03L64.48,21.59L96,29.4L97.44,29.4L101.73,29.86L103.17,29.4L106.03,29.4L107.47,29.4L116.06,31.16L117.5,31.44L120.36,31.81L121.79,32.37L130.39,33.21L131.82,32.93L140.42,31.63L141.85,32.19L144.72,32.56L146.15,33.11L153.32,33.39L154.75,33.77L159.05,34.88L160.48,33.95L164.78,34.88L166.21,34.88L169.08,35.16L170.51,35.72L173.38,36.28L174.81,34.88L180.54,34.88L181.98,35.16L187.71,38.04L189.14,35.9L193.44,34.88L194.87,33.21L197.74,32.19L199.17,30.42L200.6,30.23L202.04,29.21L207.77,29.4L209.2,29.02L216.36,30.23L217.8,30.23L220.66,27.72L222.1,27.91L224.96,27.35L226.39,26.51L233.56,27.17L234.99,27.35L236.42,27.17L237.86,27.91L240.72,28.65L242.16,29.21L245.02,29.4L246.45,30.05L247.89,30.23L249.32,28.28L250.75,27.72L252.19,26.33L255.05,25.77L256.48,23.73L257.92,23.35L259.35,24.28L263.65,25.96L265.08,26.33L267.95,27.54L269.38,29.21L273.68,32.37L275.11,31.35L277.98,30.6L279.41,31.44L280.84,32.37L282.28,32.37L285.14,34.97L286.58,35.9L289.44,37.67L290.87,37.48L300.9,42.6L302.34,43.15L308.07,46.5L309.5,47.34L312.37,49.29L313.8,49.94L318.1,52.92L319.53,54.87L323.83,57.94L325.26,58.31L329.56,61.65L330.99,60.91L332.43,59.7L333.86,60.35L338.16,62.86L339.59,62.86L341.02,63.88L342.46,62.96L346.76,64.91L348.19,65.56L353.92,67.79L355.35,68.35L358.22,69.18L359.65,70.39L362.52,71.41L363.95,72.62L366.82,75.04L368.25,74.85L373.98,78.57L375.41,78.94L382.58,83.22L384.01,84.06L388.31,85.08L389.74,84.24L392.61,82.66L394.04,83.22L398.34,84.89L399.77,86.29L404.07,88.8L405.5,89.45L406.94,88.43L408.37,88.43L411.24,90.47L412.67,90.94L418.4,92.33L419.83,91.68L428.43,94L429.86,92.52L432.73,90.1L434.16,89.64L438.46,88.24L439.89,88.24L444.19,88.24L445.62,87.22L448.49,84.24L449.92,83.87L451.36,82.85L452.79,80.8L457.09,79.13L458.52,78.11L459.95,75.88L461.39,75.04L465.68,74.3L467.12,73.27L469.98,72.25L471.42,72.07L475.72,71.23L477.15,71.23L478.58,71.04L480.01,70.02L494.34,69.37L495.78,69.18L500.07,68.63L501.51,68.81L505.81,68.53L507.24,69.18L512.97,68.53L514.4,67.51L517.27,67.6L518.7,66.77L521.57,66.58" style="vector-effect: non-scaling-stroke; fill: none; stroke: rgb(85, 160, 165); stroke-opacity: 1; stroke-width: 2px; opacity: 1;"/><g class="points"/></g><g class="trace scatter trace9bf3c5" style="stroke-miterlimit: 2; opacity: 0.8;"><path class="js-line" d="M0,65.56L2.87,64.72L4.3,65.28L5.73,65.37L7.16,64.54L12.9,60.35L14.33,60.26L15.76,60.54L17.19,59.52L20.06,57.94L21.49,56.54L27.22,55.15L28.66,55.05L32.96,54.68L34.39,54.5L38.69,54.68L40.12,54.31L45.85,56.54L47.28,56.73L51.58,59.14L53.02,59.7L54.45,60.72L55.88,60.72L60.18,60.35L61.61,60.26L63.05,59.7L64.48,58.31L68.78,58.12L70.21,57.94L73.08,57.94L74.51,58.12L77.38,57.66L78.81,57.66L84.54,56.73L85.97,55.33L88.84,53.75L90.27,53.47L97.44,53.29L98.87,52.08L103.17,50.87L104.6,49.66L106.03,48.45L107.47,45.29L116.06,42.6L117.5,41.76L121.79,37.3L123.23,36.65L126.09,34.7L127.53,33.77L131.82,32L133.26,31.44L134.69,29.4L136.12,28.84L138.99,27.72L140.42,27.54L144.72,26.98L146.15,25.4L149.02,24.1L150.45,18.52L151.88,14.62L153.32,13.5L156.18,14.06L157.62,14.99L163.35,18.15L164.78,18.33L166.21,17.96L167.65,18.52L174.81,20.66L176.24,21.4L180.54,22.89L181.98,23.73L186.27,24.47L187.71,23.54L192.01,25.96L193.44,25.03L194.87,22.15L196.3,21.59L203.47,21.96L204.9,22.52L219.23,26.79L220.66,25.58L222.1,25.96L223.53,25.21L226.39,27.17L227.83,27.91L232.13,29.02L233.56,29.21L237.86,32L239.29,32.37L240.72,32.56L242.16,33.58L260.78,45.76L262.22,47.06L263.65,48.27L265.08,47.71L266.52,47.24L267.95,48.45L270.81,49.66L272.25,49.94L273.68,50.87L275.11,50.5L279.41,53.66L280.84,52.92L285.14,55.15L286.58,54.31L295.17,59.52L296.61,60.35L298.04,61.28L299.47,59.7L306.64,63.51L308.07,64.54L313.8,67.79L315.23,67.98L316.67,68.16L318.1,70.02L320.96,71.79L322.4,71.04L335.29,80.52L336.73,81.83L341.02,83.69L342.46,84.89L351.05,91.68L352.49,92.14L359.65,97.07L361.08,97.54L362.52,98.93L363.95,97.72L371.12,101.81L372.55,101.81L379.71,106.55L381.15,107.02L384.01,109.44L385.44,110.09L388.31,112.13L389.74,112.97L401.21,119.94L402.64,119.94L404.07,121.8L405.5,120.96L408.37,120.78L409.8,121.24L414.1,124.12L415.53,124.5L416.97,125.15L418.4,124.31L421.27,124.77L422.7,125.98L425.56,126.35L427,127.01L435.59,130.35L437.03,129.89L438.46,129.89L439.89,131.1L447.06,131.37L448.49,131.93L452.79,133.61L454.22,133.42L457.09,133.42L458.52,134.07L462.82,134.44L464.25,134.81L467.12,136.49L468.55,136.95L471.42,137.79L472.85,137.32L474.28,136.95L475.72,137.7L480.01,138.81L481.45,138.72L485.75,140.58L487.18,141.04L490.04,142.07L491.48,141.88L498.64,142.25L500.07,142.25L505.81,143.55L507.24,144.11L510.1,145.97L511.54,145.6L515.84,145.41L517.27,145.41L521.57,143.74" style="vector-effect: non-scaling-stroke; fill: none; stroke: rgb(70, 148, 148); stroke-opacity: 1; stroke-width: 2px; opacity: 1;"/><g class="points"/></g><g class="trace scatter traced548fd" style="stroke-miterlimit: 2; opacity: 0.8;"><path class="js-line" d="M0,143.92L7.16,145.78L8.6,145.78L14.33,145.41L15.76,143.37L20.06,140.39L21.49,140.02L27.22,139L28.66,139L35.82,138.72L37.25,138.72L40.12,139L41.55,139.83L44.42,139.18L45.85,137.7L48.72,136.3L50.15,136.12L51.58,134.26L53.02,130.35L55.88,125.15L57.32,123.94L60.18,122.64L61.61,120.41L64.48,111.29L65.91,109.06L67.35,108.04L68.78,105.72L71.64,99.95L73.08,97.54L75.94,92.7L77.38,91.12L87.41,84.24L88.84,83.87L90.27,83.5L91.7,81.18L98.87,67.32L100.3,65.74L101.73,64.54L103.17,64.54L111.76,58.86L113.2,56.73L116.06,54.68L117.5,53.94L120.36,52.45L121.79,52.45L127.53,48.92L128.96,48.55L130.39,47.24L131.82,44.73L133.26,44.18L134.69,42.6L137.56,39.06L138.99,38.04L150.45,33.95L151.88,33.95L156.18,33.39L157.62,33.39L161.92,33.95L163.35,33.77L169.08,34.7L170.51,30.42L174.81,27.72L176.24,27.35L179.11,26.98L180.54,26.98L190.57,28.28L192.01,29.4L193.44,29.4L194.87,30.6L196.3,29.68L197.74,29.86L207.77,33.11L209.2,33.95L210.63,34.51L212.07,34.14L214.93,35.72L216.36,36.65L217.8,36.28L219.23,36.93L224.96,38.6L226.39,38.88L237.86,45.29L239.29,46.5L240.72,45.94L242.16,46.87L247.89,50.5L249.32,50.13L250.75,49.48L252.19,50.13L262.22,53.75L263.65,55.05L265.08,54.5L266.52,55.15L272.25,57.94L273.68,57.94L279.41,60.91L280.84,61.28L285.14,63.7L286.58,63.7L290.87,64.16L292.31,61.1L295.17,52.08L296.61,51.34L298.04,50.87L299.47,49.48L306.64,50.68L308.07,51.15L312.37,53.47L313.8,53.47L315.23,52.45L316.67,52.45L323.83,52.73L325.26,53.47L336.73,58.68L338.16,59.52L349.62,66.12L351.05,66.77L355.35,69.18L356.79,68.16L358.22,60.26L359.65,59.14L361.08,58.86L362.52,56.45L363.95,56.08L365.38,56.54L371.12,55.05L372.55,55.33L381.15,57.1L382.58,57.28L385.44,57.28L386.88,55.7L389.74,54.31L391.18,54.12L394.04,54.5L395.47,55.52L399.77,56.45L401.21,57.1L408.37,59.7L409.8,60.26L414.1,62.12L415.53,61.93L427,67.51L428.43,65.37L438.46,64.72L439.89,65.09L442.76,65.37L444.19,65.09L452.79,64.54L454.22,64.35L462.82,62.96L464.25,63.88L469.98,65.37L471.42,64.91L474.28,63.14L475.72,62.86L478.58,62.49L480.01,60.54L485.75,59.05L487.18,58.68L492.91,58.49L494.34,55.89L497.21,45.94L498.64,44.55L508.67,37.11L510.1,37.11L514.4,36.74L515.84,34.51L517.27,34.14L518.7,32.19L521.57,29.86L523,29.4" style="vector-effect: non-scaling-stroke; fill: none; stroke: rgb(56, 134, 130); stroke-opacity: 1; stroke-width: 2px; opacity: 1;"/><g class="points"/></g><g class="trace scatter traceb361c8" style="stroke-miterlimit: 2; opacity: 0.8;"><path class="js-line" d="M0,28.65L7.16,28.09L8.6,26.98L11.46,25.96L12.9,25.96L14.33,24.66L15.76,25.4L24.36,26.51L25.79,26.51L37.25,28.28L38.69,28.09L40.12,26.79L41.55,26.79L47.28,27.72L48.72,27.72L57.32,29.21L58.75,29.21L81.67,29.68L83.11,28.47L84.54,28.28L85.97,26.98L94.57,27.35L96,25.58L98.87,24.47L100.3,23.54L103.17,22.89L104.6,22.89L117.5,22.7L118.93,23.35L123.23,23.54L124.66,22.7L126.09,23.07L127.53,22.52L131.82,22.33L133.26,21.77L138.99,20.66L140.42,21.22L141.85,21.4L143.29,20.29L144.72,20.47L146.15,21.77L150.45,22.52L151.88,23.35L156.18,24.28L157.62,23.73L160.48,22.7L161.92,22.89L169.08,23.73L170.51,24.84L171.95,25.77L173.38,25.4L179.11,25.21L180.54,23.54L184.84,21.4L186.27,22.15L187.71,22.52L189.14,23.73L192.01,25.03L193.44,25.4L196.3,25.58L197.74,26.33L202.04,28.65L203.47,29.21L209.2,32L210.63,32L222.1,36.93L223.53,37.86L230.69,41.2L232.13,39.81L233.56,39.62L234.99,38.41L237.86,37.48L239.29,37.86L240.72,38.23L242.16,35.16L246.45,33.11L247.89,33.11L257.92,33.11L259.35,32.37L260.78,30.05L262.22,29.4L263.65,28.28L265.08,28.65L272.25,28.09L273.68,28.84L276.55,29.21L277.98,29.68L282.28,31.16L283.71,29.58L288.01,30.05L289.44,29.02L290.87,29.4L292.31,24.66L295.17,22.7L296.61,22.33L298.04,22.15L299.47,22.89L302.34,23.91L303.77,22.33L308.07,24.1L309.5,25.21L312.37,26.33L313.8,27.54L329.56,34.88L330.99,35.35L332.43,36.46L333.86,36.28L336.73,35.53L338.16,36.46L342.46,39.62L343.89,38.69L348.19,41.02L349.62,41.95L355.35,45.66L356.79,47.24L381.15,64.16L382.58,64.72L385.44,66.95L386.88,67.79L389.74,69.37L391.18,70.58L394.04,71.79L395.47,71.41L404.07,74.02L405.5,75.04L411.24,77.55L412.67,78.29L414.1,79.97L415.53,79.97L422.7,82.85L424.13,83.03L425.56,81.64L427,81.83L429.86,81.83L431.3,80.34L434.16,80.62L435.59,79.97L439.89,80.62L441.33,81.18L442.76,80.99L444.19,81.83L451.36,83.03L452.79,83.03L462.82,83.41L464.25,82.2L468.55,81.18L469.98,81.18L480.01,79.6L481.45,78.57L484.31,76.34L485.75,76.34L490.04,76.25L491.48,75.69L494.34,75.88L495.78,75.69L501.51,73.65L502.94,73.65L505.81,73.27L507.24,73.46L512.97,73L514.4,72.62L518.7,70.39L520.13,70.21L521.57,69.83" style="vector-effect: non-scaling-stroke; fill: none; stroke: rgb(44, 120, 113); stroke-opacity: 1; stroke-width: 2px; opacity: 1;"/><g class="points"/></g><g class="trace scatter trace71b0f5" style="stroke-miterlimit: 2; opacity: 0.8;"><path class="js-line" d="M0,69.37L2.87,68.81L4.3,68.63L10.03,67.6L11.46,67.32L15.76,67.32L17.19,67.14L21.49,67.32L22.93,67.14L24.36,66.12L25.79,66.58L32.96,65.93L34.39,65.93L37.25,62.68L38.69,61.75L41.55,60.54L42.99,60.26L45.85,59.89L47.28,59.52L63.05,57.75L64.48,57.75L70.21,56.54L71.64,56.73L75.94,57.28L77.38,55.89L78.81,55.33L80.24,51.71L83.11,49.1L84.54,48.45L91.7,46.13L93.14,46.13L101.73,43.15L103.17,40.64L107.47,37.3L108.9,36.74L114.63,35.35L116.06,33.11L117.5,31.63L118.93,31.35L120.36,29.68L121.79,29.58L123.23,29.86L124.66,28.65L127.53,19.45L128.96,17.96L130.39,17.5L131.82,17.96L141.85,21.03L143.29,21.77L150.45,23.91L151.88,23.91L160.48,25.4L161.92,25.96L164.78,26.51L166.21,26.79L170.51,28.09L171.95,28.09L184.84,31.63L186.27,32.19L187.71,33.21L189.14,33.21L196.3,34.14L197.74,33.39L207.77,37.86L209.2,37.3L212.07,39.06L213.5,38.88L216.36,40.46L217.8,39.99L219.23,41.02L220.66,41.02L226.39,43.34L227.83,44.36L230.69,44.36L232.13,45.29L233.56,44.36L234.99,45.11L239.29,46.87L240.72,47.71L249.32,51.89L250.75,52.08L255.05,55.05L256.48,55.33L265.08,61.28L266.52,62.12L270.81,64.54L272.25,65.93L273.68,66.12L275.11,67.14L277.98,68.53L279.41,68.53L280.84,70.02L282.28,69.18L289.44,72.62L290.87,73.09L293.74,73.46L295.17,74.11L309.5,83.5L310.93,84.06L316.67,87.4L318.1,87.96L325.26,92.52L326.7,92.33L333.86,96.61L335.29,95.58L338.16,97.44L339.59,98.75L349.62,103.86L351.05,104.14L353.92,106L355.35,106.74L372.55,118.55L373.98,119.38L375.41,120.03L376.85,121.61L378.28,122.82L379.71,122.92L382.58,124.77L384.01,125.33L389.74,126.82L391.18,125.52L392.61,121.8L394.04,121.61L395.47,121.43L396.91,122.26L405.5,127.66L406.94,128.21L409.8,128.4L411.24,126.63L418.4,127.38L419.83,128.4L425.56,131.56L427,132.77L428.43,133.05L429.86,132.21L432.73,134.44L434.16,135.28L439.89,137.97L441.33,136.3L445.62,136.12L447.06,136.12L449.92,135.93L451.36,136.12L457.09,136.12L458.52,135.28L461.39,135L462.82,135.46L465.68,135.93L467.12,136.3L468.55,136.3L469.98,137.14L478.58,138.53L480.01,137.14L485.75,137.79L487.18,138.35L492.91,138.16L494.34,137.14L497.21,134.63L498.64,134.26L507.24,132.77L508.67,133.23L515.84,135L517.27,136.3L521.57,136.86" style="vector-effect: non-scaling-stroke; fill: none; stroke: rgb(33, 106, 95); stroke-opacity: 1; stroke-width: 2px; opacity: 1;"/><g class="points"/></g><g class="trace scatter trace1d5cf7" style="stroke-miterlimit: 2; opacity: 0.8;"><path class="js-line" d="M0,136.86L7.16,137.32L8.6,136.86L14.33,137.32L15.76,135.84L18.63,136.3L20.06,136.3L24.36,135.84L25.79,135.09L27.22,135.65L28.66,134.81L44.42,132.77L45.85,131.1L57.32,128.68L58.75,128.68L68.78,128.03L70.21,127.84L74.51,127.01L75.94,127.19L77.38,127.19L78.81,125.8L81.67,123.75L83.11,123.47L84.54,122.08L85.97,121.8L88.84,120.96L90.27,120.96L91.7,119.38L93.14,110.27L96,99.58L97.44,97.07L98.87,95.03L100.3,90.94L106.03,83.69L107.47,80.52L116.06,71.23L117.5,70.58L123.23,68.81L124.66,68.63L128.96,66.77L130.39,65.93L133.26,64.91L134.69,63.14L138.99,60.54L140.42,60.07L144.72,58.68L146.15,57.75L149.02,55.15L150.45,54.87L153.32,50.31L154.75,48.92L157.62,47.24L159.05,46.87L160.48,46.13L161.92,44.36L167.65,41.76L169.08,39.81L173.38,38.88L174.81,38.69L176.24,38.6L177.68,37.48L192.01,37.3L193.44,34.97L196.3,32.19L197.74,30.98L200.6,29.21L202.04,28.84L204.9,29.21L206.33,28.09L209.2,28.47L210.63,29.02L216.36,32.19L217.8,30.42L227.83,36.09L229.26,35.9L232.13,36.46L233.56,37.86L242.16,40.64L243.59,41.57L246.45,43.34L247.89,41.57L249.32,40.83L250.75,41.02L257.92,42.41L259.35,43.15L279.41,51.52L280.84,52.45L298.04,60.35L299.47,61.47L306.64,65.37L308.07,66.39L310.93,68.53L312.37,68.63L315.23,70.21L316.67,69.83L323.83,74.02L325.26,73L338.16,80.34L339.59,78.76L341.02,78.76L342.46,73.46L343.89,69.37L345.32,68.16L348.19,67.79L349.62,68.35L352.49,70.21L353.92,70.76L355.35,69.56L356.79,66.95L359.65,60.07L361.08,59.05L365.38,58.49L366.82,58.68L371.12,58.49L372.55,58.68L378.28,59.89L379.71,59.14L381.15,57.1L382.58,56.45L389.74,54.68L391.18,53.66L395.47,52.73L396.91,52.45L405.5,53.47L406.94,53.94L409.8,53.47L411.24,51.89L412.67,51.06L414.1,51.15L416.97,51.06L418.4,49.66L421.27,49.94L422.7,50.13L428.43,50.68L429.86,49.94L432.73,47.34L434.16,47.34L441.33,45.66L442.76,45.76L447.06,44.92L448.49,44.55L449.92,42.6L451.36,42.6L457.09,41.39L458.52,40.83L459.95,41.02L461.39,42.13L465.68,42.6L467.12,39.62L471.42,38.23L472.85,37.67L474.28,38.41L475.72,37.48L478.58,34.14L480.01,33.58L484.31,33.21L485.75,33.21L487.18,32.37L488.61,26.98L490.04,24.84L491.48,24.1L495.78,23.91L497.21,24.1L498.64,24.84L500.07,24.66L502.94,24.66L504.37,25.58L508.67,25.58L510.1,23.73L514.4,24.28L515.84,25.4L517.27,23.73L518.7,23.91L521.57,24.28" style="vector-effect: non-scaling-stroke; fill: none; stroke: rgb(24, 90, 77); stroke-opacity: 1; stroke-width: 2px; opacity: 1;"/><g class="points"/></g><g class="trace scatter trace10fd44" style="stroke-miterlimit: 2; opacity: 0.8;"><path class="js-line" d="M0,24.84L2.87,24.66L4.3,25.4L8.6,26.33L10.03,26.79L14.33,28.47L15.76,27.72L20.06,29.58L21.49,30.6L30.09,34.14L31.52,35.35L35.82,35.35L37.25,34.7L40.12,34.14L41.55,33.95L45.85,34.32L47.28,34.32L58.75,37.11L60.18,38.04L64.48,39.99L65.91,40.46L73.08,43.9L74.51,44.73L78.81,45.76L80.24,45.76L84.54,47.06L85.97,46.13L90.27,47.52L91.7,48.08L96,50.68L97.44,50.31L107.47,51.71L108.9,51.34L111.76,52.08L113.2,52.45L118.93,53.29L120.36,53.66L130.39,57.47L131.82,57.47L136.12,59.05L137.56,59.52L147.59,62.86L149.02,63.33L153.32,64.35L154.75,64.54L159.05,65.74L160.48,65.28L161.92,62.12L163.35,62.12L167.65,60.91L169.08,61.28L173.38,61.93L174.81,61.47L184.84,60.72L186.27,59.33L193.44,58.86L194.87,57.94L199.17,57.47L200.6,57.75L204.9,59.05L206.33,59.33L213.5,61.93L214.93,61.47L217.8,62.68L219.23,62.3L222.1,60.54L223.53,60.54L229.26,61.28L230.69,61.47L233.56,62.49L234.99,62.12L237.86,61.93L239.29,62.68L245.02,65.28L246.45,66.12L249.32,67.32L250.75,67.79L259.35,72.81L260.78,74.67L275.11,83.22L276.55,84.43L288.01,92.33L289.44,93.73L292.31,95.68L293.74,95.86L298.04,98.47L299.47,98.56L300.9,98.47L302.34,99.4L306.64,101.44L308.07,102.46L310.93,103.67L312.37,103.11L318.1,106.55L319.53,105.35L322.4,105.72L323.83,106.37L326.7,105.35L328.13,106.18L335.29,109.62L336.73,110.46L343.89,113.43L345.32,113.62L353.92,119.2L355.35,117.9L356.79,117.52L358.22,118.08L359.65,118.92L361.08,118.36L365.38,120.59L366.82,121.43L373.98,125.8L375.41,125.33L381.15,127.38L382.58,127.84L386.88,130.54L388.31,131.19L389.74,130.07L391.18,130.91L394.04,132.4L395.47,132.58L408.37,138.72L409.8,139.83L412.67,140.02L414.1,139.56L416.97,139.83L418.4,139.83L419.83,138.81L421.27,138.81L429.86,139.37L431.3,139.18L432.73,138.81L434.16,137.32L437.03,136.67L438.46,137.14L445.62,140.67L447.06,140.86L449.92,143.74L451.36,144.76L454.22,145.6L455.65,145.6L458.52,146.16L459.95,146.43L475.72,148.67L477.15,149.87L480.01,151.18L481.45,152.01L491.48,155.54L492.91,155.54L502.94,154.71L504.37,153.87L508.67,152.76L510.1,152.2L515.84,150.99L517.27,149.87L520.13,149.5L521.57,149.13L523,149.5" style="vector-effect: non-scaling-stroke; fill: none; stroke: rgb(16, 74, 60); stroke-opacity: 1; stroke-width: 2px; opacity: 1;"/><g class="points"/></g><g class="trace scatter trace634b7e" style="stroke-miterlimit: 2; opacity: 0.8;"><path class="js-line" d="M0,149.87L2.87,150.99L4.3,151.36L7.16,152.2L8.6,152.85L12.9,154.61L14.33,154.89L22.93,152.76L24.36,152.2L25.79,152.85L27.22,152.38L34.39,152.01L35.82,152.76L38.69,153.87L40.12,154.24L41.55,154.61L42.99,152.57L45.85,151.18L47.28,150.52L54.45,149.69L55.88,147.18L75.94,144.3L77.38,143.74L81.67,142.25L83.11,141.41L88.84,138.72L90.27,138.53L96,136.12L97.44,135.93L100.3,135.28L101.73,132.77L106.03,128.68L107.47,127.84L108.9,127.19L110.33,125.33L114.63,122.92L116.06,122.64L127.53,119.75L128.96,118.92L134.69,115.66L136.12,115.01L137.56,115.29L138.99,114.64L141.85,113.8L143.29,112.97L146.15,111.29L147.59,110.74L150.45,110.64L151.88,109.71L154.75,109.62L156.18,107.86L161.92,106.74L163.35,106.37L167.65,106L169.08,106L171.95,106.18L173.38,106.74L177.68,108.88L179.11,109.44L183.41,110.74L184.84,110.46L186.27,110.46L187.71,109.62L193.44,110.09L194.87,109.71L197.74,111.76L199.17,111.95L202.04,111.95L203.47,111.57L206.33,104.32L207.77,103.11L212.07,101.44L213.5,100.33L222.1,97.44L223.53,97.44L224.96,97.26L226.39,92.52L229.26,90.29L230.69,86.57L233.56,82.57L234.99,77.55L237.86,74.3L239.29,73.65L242.16,71.41L243.59,71.23L249.32,70.39L250.75,69.18L253.62,69L255.05,67.98L256.48,65.09L257.92,64.54L259.35,64.16L260.78,62.12L265.08,61.47L266.52,61.65L269.38,61.47L270.81,61.1L285.14,67.51L286.58,68.53L290.87,70.39L292.31,69.18L295.17,70.58L296.61,71.79L300.9,73.83L302.34,74.67L303.77,76.25L305.2,75.69L315.23,81.36L316.67,77.92L325.26,81.36L326.7,82.38L330.99,84.71L332.43,85.54L336.73,88.43L338.16,89.64L342.46,91.49L343.89,91.31L346.76,93.54L348.19,93.17L351.05,93.82L352.49,94.75L359.65,99.77L361.08,101.26L363.95,102L365.38,100.79L368.25,102.18L369.68,102.84L376.85,106.37L378.28,105.9L379.71,106L381.15,106.93L388.31,110.46L389.74,110.74L395.47,113.62L396.91,114.18L402.64,114.18L404.07,115.2L408.37,116.69L409.8,117.34L415.53,119.01L416.97,120.03L421.27,121.89L422.7,122.45L428.43,125.61L429.86,126.54L432.73,127.84L434.16,128.49L435.59,129.24L437.03,128.68L458.52,136.95L459.95,136.95L467.12,139.56L468.55,140.21L471.42,141.41L472.85,139.37L474.28,137.51L475.72,137.32L484.31,138.53L485.75,139.37L487.18,138.81L488.61,139.18L497.21,140.58L498.64,140.02L501.51,140.39L502.94,140.21L505.81,140.86L507.24,141.23L508.67,141.41L510.1,140.58L511.54,139.37L512.97,139.18L517.27,139.65L518.7,138.81L521.57,137.14" style="vector-effect: non-scaling-stroke; fill: none; stroke: rgb(10, 57, 43); stroke-opacity: 1; stroke-width: 2px; opacity: 1;"/><g class="points"/></g><g class="trace scatter trace509b0c" style="stroke-miterlimit: 2; opacity: 0.8;"><path class="js-line" d="M0,136.95L2.87,135.84L4.3,136.12L7.16,135.28L8.6,132.77L11.46,132.21L12.9,132.4L15.76,130.72L17.19,130.07L18.63,129.33L20.06,127.01L24.36,123.66L25.79,123.1L30.09,121.24L31.52,121.61L38.69,122.26L40.12,122.64L44.42,122.45L45.85,122.26L50.15,120.41L51.58,119.75L61.61,118.17L63.05,116.31L68.78,115.29L70.21,115.01L71.64,114.83L73.08,113.62L77.38,112.32L78.81,112.6L87.41,115.48L88.84,115.29L98.87,115.29L100.3,115.48L107.47,113.43L108.9,113.43L110.33,113.43L111.76,112.32L121.79,109.9L123.23,110.09L124.66,108.88L126.09,104.32L128.96,94L130.39,90.84L134.69,85.73L136.12,84.71L141.85,79.97L143.29,79.32L146.15,77.09L147.59,77.09L149.02,77.09L150.45,70.21L151.88,70.02L153.32,67.51L156.18,65.56L157.62,65.37L160.48,64.72L161.92,64.35L163.35,64.54L164.78,63.51L166.21,61.75L167.65,61.47L170.51,59.7L171.95,56.08L174.81,52.54L176.24,51.89L179.11,50.31L180.54,49.85L189.14,47.06L190.57,47.52L193.44,46.69L194.87,44.36L197.74,42.22L199.17,42.22L203.47,42.78L204.9,42.13L212.07,42.22L213.5,42.97L216.36,42.97L217.8,43.71L222.1,44.73L223.53,44.55L236.42,48.45L237.86,49.29L247.89,53.94L249.32,55.05L250.75,56.08L252.19,55.33L260.78,60.26L262.22,59.7L263.65,59.05L265.08,59.33L267.95,60.72L269.38,60.54L270.81,61.1L272.25,60.72L279.41,64.07L280.84,62.86L282.28,62.49L283.71,63.14L290.87,66.39L292.31,65.28L298.04,68.53L299.47,68.35L303.77,70.21L305.2,72.07L308.07,74.11L309.5,74.11L310.93,75.32L312.37,74.85L313.8,75.32L315.23,77.36L319.53,81.18L320.96,83.5L322.4,76.34L323.83,77.55L326.7,79.97L328.13,79.5L333.86,79.97L335.29,82.66L341.02,85.27L342.46,85.08L348.19,88.15L349.62,88.15L351.05,87.78L352.49,88.61L355.35,89.82L356.79,89.08L361.08,91.31L362.52,92.7L365.38,94.19L366.82,95.03L376.85,101.44L378.28,102.28L384.01,104.88L385.44,106L389.74,107.76L391.18,108.04L394.04,108.79L395.47,109.25L396.91,108.88L398.34,109.44L399.77,110.64L401.21,110.09L404.07,111.57L405.5,111.76L411.24,113.99L412.67,113.43L414.1,112.5L415.53,112.97L421.27,114.83L422.7,111.48L425.56,110.27L427,110.09L432.73,109.62L434.16,109.9L437.03,110.64L438.46,112.13L442.76,113.34L444.19,112.78L447.06,114.18L448.49,114.46L454.22,115.48L455.65,116.31L457.09,116.87L458.52,116.5L459.95,115.66L461.39,116.04L468.55,116.5L469.98,116.5L471.42,116.04L472.85,113.8L478.58,113.8L480.01,112.97L484.31,112.5L485.75,111.48L487.18,109.71L488.61,109.71L490.04,109.44L491.48,105.9L494.34,102.46L495.78,101.63L500.07,100.33L501.51,98.56L505.81,96.7L507.24,96.24L508.67,96.05L510.1,94.84L511.54,94.75L512.97,93.35L520.13,90.66L521.57,90.47" style="vector-effect: non-scaling-stroke; fill: none; stroke: rgb(5, 38, 27); stroke-opacity: 1; stroke-width: 2px; opacity: 1;"/><g class="points"/></g><g class="trace scatter trace923c8b" style="stroke-miterlimit: 2; opacity: 0.8;"><path class="js-line" d="M0,90.66L2.87,89.82L4.3,88.43L8.6,87.22L10.03,87.13L11.46,87.59L12.9,87.13L15.76,87.59L17.19,86.38L22.93,87.4L24.36,86.57L27.22,83.5L28.66,83.03L37.25,79.32L38.69,79.32L44.42,78.57L45.85,77.09L53.02,75.69L54.45,75.13L58.75,73.46L60.18,73.46L80.24,70.39L81.67,70.86L90.27,72.25L91.7,72.81L96,74.48L97.44,75.04L101.73,76.34L103.17,76.53L106.03,76.71L107.47,77.09L120.36,78.94L121.79,77.55L130.39,75.32L131.82,75.13L134.69,72.07L136.12,70.86L144.72,64.54L146.15,65.28L149.02,63.51L150.45,64.07L161.92,58.31L163.35,58.31L167.65,57.28L169.08,57.75L180.54,59.89L181.98,60.35L190.57,62.12L192.01,62.49L197.74,64.07L199.17,63.88L204.9,67.32L206.33,67.79L209.2,68.81L210.63,68.81L212.07,67.98L213.5,68.63L214.93,69.18L216.36,68.63L217.8,66.3L219.23,66.12L224.96,66.95L226.39,68.35L229.26,68.16L230.69,68.63L234.99,69.83L236.42,70.21L237.86,69L239.29,69.37L243.59,71.23L245.02,70.58L246.45,70.21L247.89,70.76L252.19,71.04L253.62,72.25L255.05,70.21L256.48,70.39L259.35,70.58L260.78,69L263.65,69L265.08,69.37L270.81,70.02L272.25,68.16L279.41,68.81L280.84,69L283.71,71.23L285.14,71.41L290.87,74.02L292.31,74.67L298.04,77.36L299.47,77.74L306.64,81.36L308.07,81.83L309.5,81.64L310.93,82.57L312.37,82.85L313.8,84.06L318.1,86.94L319.53,86.1L323.83,88.24L325.26,87.96L336.73,92.33L338.16,92.98L342.46,95.21L343.89,96.24L353.92,102L355.35,103.11L359.65,105.72L361.08,104.88L362.52,104.04L363.95,105.35L365.38,105.53L366.82,104.51L372.55,107.02L373.98,108.04L376.85,109.25L378.28,110.64L388.31,116.69L389.74,114.46L391.18,111.76L392.61,111.76L399.77,116.04L401.21,116.5L405.5,118.17L406.94,118.73L408.37,119.01L409.8,120.22L424.13,127.47L425.56,128.49L428.43,129.52L429.86,129.89L432.73,127.84L434.16,128.4L438.46,130.07L439.89,130.35L442.76,131.19L444.19,131.56L448.49,132.77L449.92,133.23L455.65,135.65L457.09,135.93L459.95,136.67L461.39,137.32L462.82,135.84L464.25,135.93L472.85,138.72L474.28,138.16L484.31,138.81L485.75,139.56L488.61,140.39L490.04,141.41L497.21,144.11L498.64,143.37L505.81,142.72L507.24,143.37L510.1,141.41L511.54,139.83L514.4,139.65L515.84,139.83L517.27,139.65L518.7,138.35L521.57,137.7" style="vector-effect: non-scaling-stroke; fill: none; stroke: rgb(2, 19, 13); stroke-opacity: 1; stroke-width: 2px; opacity: 1;"/><g class="points"/></g><g class="trace scatter tracecedef2" style="stroke-miterlimit: 2; opacity: 0.8;"><path class="js-line" d="M0,137.51L5.73,136.67L7.16,137.32L10.03,137.32L11.46,138.16L12.9,137.97L14.33,136.86L15.76,137.97L17.19,137.7L18.63,138.35L20.06,137.79L25.79,136.3L27.22,136.3L31.52,136.12L32.96,136.95L35.82,137.97L37.25,137.51L40.12,138.16L41.55,139.18L44.42,140.39L45.85,140.02L48.72,138.53L50.15,136.95L54.45,136.86L55.88,136.86L60.18,136.95L61.61,136.67L64.48,136.67L65.91,135.84L68.78,134.26L70.21,133.98L77.38,131.56L78.81,127.84L80.24,125.52L81.67,124.68L85.97,122.45L87.41,121.06L90.27,119.01L91.7,118.17L96,117.34L97.44,117.06L106.03,114.36L107.47,113.62L116.06,110.74L117.5,110.46L120.36,109.44L121.79,108.88L124.66,108.41L126.09,106.55L128.96,106.55L130.39,105.35L136.12,102.46L137.56,102.46L140.42,101.44L141.85,100.42L144.72,99.58L146.15,99.4L150.45,97.44L151.88,97.07L157.62,95.86L159.05,96.24L167.65,95.68L169.08,95.58L174.81,95.21L176.24,94.56L180.54,93.17L181.98,92.8L193.44,91.12L194.87,91.12L202.04,93.17L203.47,93.82L219.23,99.95L220.66,101.16L223.53,102.46L224.96,101.81L227.83,102.84L229.26,103.86L245.02,111.48L246.45,112.6L247.89,112.97L249.32,114.18L252.19,115.66L253.62,116.69L260.78,120.92L262.22,121.42L266.52,123.96L267.95,124.47L276.55,129.03L277.98,130.05L279.41,130.9L280.84,130.73L289.44,135.97L290.87,137.49L293.74,138.84L295.17,140.03L302.34,144.59L303.77,145.27L308.07,146.29L309.5,147.3L315.23,151.19L316.67,152.21L318.1,153.39L319.53,153.39L322.4,154.74L323.83,153.22L328.13,155.25L329.56,156.1L332.43,157.45L333.86,158.63L335.29,158.29L336.73,159.31L345.32,164.55L346.76,165.4L349.62,167.26L351.05,167.6L359.65,173.85L361.08,174.7L369.68,179.6L371.12,180.96L373.98,182.98L375.41,182.14L378.28,183.31L379.71,184.31L386.88,188.65L388.31,189.32L395.47,193.16L396.91,192.99L401.21,194.49L402.64,195.49L404.07,195.66L405.5,196.66L408.37,198.5L409.8,199.49L411.24,199.82L412.67,201.14L415.53,202.78L416.97,202.95L419.83,204.92L421.27,205.42L424.13,205.42L425.56,205.75L429.86,207.72L431.3,207.23L434.16,208.54L435.59,208.87L451.36,214.64L452.79,215.46L455.65,216.61L457.09,216.78L461.39,217.76L462.82,218.42L465.68,218.92L467.12,219.9L471.42,221.06L472.85,221.71L477.15,223.36L478.58,221.55L481.45,219.9L482.88,219.74L491.48,219.57L492.91,220.23L494.34,220.89L495.78,220.4L497.21,220.23L498.64,221.06L500.07,220.56L501.51,221.71L505.81,221.22L507.24,222.04L512.97,223.36L514.4,222.87L518.7,223.69L520.13,223.36L523,223.03" style="vector-effect: non-scaling-stroke; fill: none; stroke: rgb(0, 0, 0); stroke-opacity: 1; stroke-width: 2px; opacity: 1;"/><g class="points"/></g><g class="trace scatter trace2d2e9e" style="stroke-miterlimit: 2; opacity: 0.8;"><path class="js-line" d="M0,222.54L11.46,221.22L12.9,221.22L14.33,221.22L15.76,220.23L20.06,218.42L21.49,218.26L27.22,216.61L28.66,216.78L31.52,215.62L32.96,214.31L34.39,214.96L35.82,214.31L38.69,214.96L40.12,214.96L53.02,216.61L54.45,216.12L57.32,214.47L58.75,213.98L63.05,212.82L64.48,212.82L77.38,211.34L78.81,210.03L81.67,206.9L83.11,205.75L85.97,203.94L87.41,203.28L88.84,202.62L90.27,202.95L93.14,203.28L94.57,203.44L101.73,203.44L103.17,202.29L106.03,201.3L107.47,201.14L113.2,202.45L114.63,202.78L118.93,203.11L120.36,203.28L121.79,203.44L123.23,202.12L126.09,199.66L127.53,198.83L128.96,194.83L130.39,193.82L131.82,192.82L133.26,190.65L137.56,181.63L138.99,178.76L143.29,173.68L144.72,172.33L147.59,169.63L149.02,169.46L156.18,167.09L157.62,166.75L159.05,165.4L160.48,165.23L161.92,165.06L163.35,164.04L166.21,163.03L167.65,162.69L170.51,161.51L171.95,161.85L174.81,160.66L176.24,160.32L177.68,160.15L179.11,158.12L183.41,156.6L184.84,156.26L189.14,155.42L190.57,152.71L194.87,150.34L196.3,149.84L200.6,148.32L202.04,148.15L206.33,146.96L207.77,144.59L210.63,141.89L212.07,141.04L214.93,140.37L216.36,139.01L222.1,137.32L223.53,135.12L224.96,132.42L226.39,131.57L230.69,129.88L232.13,129.54L236.42,129.2L237.86,129.37L242.16,128.87L243.59,127.68L247.89,127.34L249.32,127.34L253.62,126.67L255.05,127.17L257.92,128.53L259.35,127.68L262.22,127.85L263.65,128.19L269.38,129.54L270.81,129.37L276.55,130.22L277.98,130.22L283.71,132.25L285.14,132.76L288.01,133.6L289.44,134.45L292.31,135.46L293.74,134.95L296.61,136.98L298.04,136.98L305.2,140.03L306.64,140.87L308.07,141.55L309.5,141.38L310.93,141.04L312.37,141.55L326.7,147.3L328.13,147.98L332.43,149.67L333.86,150.34L335.29,149.5L336.73,150.01L345.32,154.74L346.76,156.1L351.05,158.29L352.49,158.97L353.92,159.99L355.35,159.82L356.79,158.97L358.22,159.31L362.52,161.34" style="vector-effect: non-scaling-stroke; fill: none; stroke: rgb(127, 127, 127); stroke-opacity: 1; stroke-width: 2px; opacity: 1;"/><g class="points"/></g></g></g><g class="overplot"/><path class="xlines-above crisp" style="fill: none;"/><path class="ylines-above crisp" style="fill: none;"/><g class="overlines-above"/><g class="xaxislayer-above"><g class="xtick"><text text-anchor="middle" x="0" y="383" transform="translate(121.55,0)" style="font-family: 'Open Sans', verdana, arial, sans-serif; font-size: 12px; fill: rgb(68, 68, 68); fill-opacity: 1; white-space: pre;">Mar</text></g><g class="xtick"><text text-anchor="middle" x="0" y="383" transform="translate(208.96,0)" style="font-family: 'Open Sans', verdana, arial, sans-serif; font-size: 12px; fill: rgb(68, 68, 68); fill-opacity: 1; white-space: pre;">May</text></g><g class="xtick"><text text-anchor="middle" x="0" y="383" transform="translate(296.36,0)" style="font-family: 'Open Sans', verdana, arial, sans-serif; font-size: 12px; fill: rgb(68, 68, 68); fill-opacity: 1; white-space: pre;">Jul</text></g><g class="xtick"><text text-anchor="middle" x="0" y="383" transform="translate(385.2,0)" style="font-family: 'Open Sans', verdana, arial, sans-serif; font-size: 12px; fill: rgb(68, 68, 68); fill-opacity: 1; white-space: pre;">Sep</text></g><g class="xtick"><text text-anchor="middle" x="0" y="383" transform="translate(472.61,0)" style="font-family: 'Open Sans', verdana, arial, sans-serif; font-size: 12px; fill: rgb(68, 68, 68); fill-opacity: 1; white-space: pre;">Nov</text></g><g class="xtick"><text text-anchor="middle" x="0" y="383" transform="translate(560.01,0)" style="font-family: 'Open Sans', verdana, arial, sans-serif; font-size: 12px; fill: rgb(68, 68, 68); fill-opacity: 1; white-space: pre;">Jan</text></g></g><g class="yaxislayer-above"><g class="ytick"><text text-anchor="end" x="79" y="4.199999999999999" transform="translate(0,361.06)" style="font-family: 'Open Sans', verdana, arial, sans-serif; font-size: 12px; fill: rgb(68, 68, 68); fill-opacity: 1; white-space: pre;">0.75</text></g><g class="ytick"><text text-anchor="end" x="79" y="4.199999999999999" transform="translate(0,314.57)" style="font-family: 'Open Sans', verdana, arial, sans-serif; font-size: 12px; fill: rgb(68, 68, 68); fill-opacity: 1; white-space: pre;">0.8</text></g><g class="ytick"><text text-anchor="end" x="79" y="4.199999999999999" transform="translate(0,268.09000000000003)" style="font-family: 'Open Sans', verdana, arial, sans-serif; font-size: 12px; fill: rgb(68, 68, 68); fill-opacity: 1; white-space: pre;">0.85</text></g><g class="ytick"><text text-anchor="end" x="79" y="4.199999999999999" transform="translate(0,221.61)" style="font-family: 'Open Sans', verdana, arial, sans-serif; font-size: 12px; fill: rgb(68, 68, 68); fill-opacity: 1; white-space: pre;">0.9</text></g><g class="ytick"><text text-anchor="end" x="79" y="4.199999999999999" transform="translate(0,175.13)" style="font-family: 'Open Sans', verdana, arial, sans-serif; font-size: 12px; fill: rgb(68, 68, 68); fill-opacity: 1; white-space: pre;">0.95</text></g><g class="ytick"><text text-anchor="end" x="79" y="4.199999999999999" transform="translate(0,128.65)" style="font-family: 'Open Sans', verdana, arial, sans-serif; font-size: 12px; fill: rgb(68, 68, 68); fill-opacity: 1; white-space: pre;">1</text></g></g><g class="overaxes-above"/></g></g><g class="polarlayer"/><g class="ternarylayer"/><g class="geolayer"/><g class="pielayer"/><g class="glimages"/><defs id="topdefs-da278f"><g class="clips"/><clipPath id="legendda278f"><rect width="75" height="270" x="0" y="0"/></clipPath></defs><g class="layer-above"><g class="imagelayer"/><g class="shapelayer"/></g><g class="infolayer"><g class="g-gtitle"><text class="gtitle" x="350" y="50" text-anchor="middle" style="font-family: 'Open Sans', verdana, arial, sans-serif; font-size: 17px; fill: rgb(68, 68, 68); opacity: 1; font-weight: normal; white-space: pre;">Fraction capacity filled each year</text></g><g class="legend" pointer-events="all" transform="translate(613.46, 100)"><rect class="bg" shape-rendering="crispEdges" width="75" height="270" x="0" y="0" style="stroke: rgb(68, 68, 68); stroke-opacity: 1; fill: rgb(255, 255, 255); fill-opacity: 1; stroke-width: 0px;"/><g class="scrollbox" transform="translate(0, 0)" clip-path="url(#legendda278f)"><g class="groups"><g class="traces" transform="translate(0, 14.5)" style="opacity: 1;"><g class="layers" style="opacity: 0.8;"><g class="legendfill"/><g class="legendlines"><path class="js-line" d="M5,0h30" style="fill: none; stroke: rgb(201, 228, 241); stroke-opacity: 1; stroke-width: 2px;"/></g><g class="legendsymbols"><g class="legendpoints"/></g></g><text class="legendtext user-select-none" text-anchor="start" x="40" y="4.680000000000001" style="font-family: 'Open Sans', verdana, arial, sans-serif; font-size: 12px; fill: rgb(68, 68, 68); fill-opacity: 1; white-space: pre;">2000</text><rect class="legendtoggle" pointer-events="all" x="0" y="-9.5" width="115" height="19" style="cursor: pointer; fill: rgb(0, 0, 0); fill-opacity: 0;"/></g><g class="traces" transform="translate(0, 33.5)" style="opacity: 1;"><g class="layers" style="opacity: 0.8;"><g class="legendfill"/><g class="legendlines"><path class="js-line" d="M5,0h30" style="fill: none; stroke: rgb(180, 217, 232); stroke-opacity: 1; stroke-width: 2px;"/></g><g class="legendsymbols"><g class="legendpoints"/></g></g><text class="legendtext user-select-none" text-anchor="start" x="40" y="4.680000000000001" style="font-family: 'Open Sans', verdana, arial, sans-serif; font-size: 12px; fill: rgb(68, 68, 68); fill-opacity: 1; white-space: pre;">2001</text><rect class="legendtoggle" pointer-events="all" x="0" y="-9.5" width="115" height="19" style="cursor: pointer; fill: rgb(0, 0, 0); fill-opacity: 0;"/></g><g class="traces" transform="translate(0, 52.5)" style="opacity: 1;"><g class="layers" style="opacity: 0.8;"><g class="legendfill"/><g class="legendlines"><path class="js-line" d="M5,0h30" style="fill: none; stroke: rgb(159, 206, 222); stroke-opacity: 1; stroke-width: 2px;"/></g><g class="legendsymbols"><g class="legendpoints"/></g></g><text class="legendtext user-select-none" text-anchor="start" x="40" y="4.680000000000001" style="font-family: 'Open Sans', verdana, arial, sans-serif; font-size: 12px; fill: rgb(68, 68, 68); fill-opacity: 1; white-space: pre;">2002</text><rect class="legendtoggle" pointer-events="all" x="0" y="-9.5" width="115" height="19" style="cursor: pointer; fill: rgb(0, 0, 0); fill-opacity: 0;"/></g><g class="traces" transform="translate(0, 71.5)" style="opacity: 1;"><g class="layers" style="opacity: 0.8;"><g class="legendfill"/><g class="legendlines"><path class="js-line" d="M5,0h30" style="fill: none; stroke: rgb(139, 195, 209); stroke-opacity: 1; stroke-width: 2px;"/></g><g class="legendsymbols"><g class="legendpoints"/></g></g><text class="legendtext user-select-none" text-anchor="start" x="40" y="4.680000000000001" style="font-family: 'Open Sans', verdana, arial, sans-serif; font-size: 12px; fill: rgb(68, 68, 68); fill-opacity: 1; white-space: pre;">2003</text><rect class="legendtoggle" pointer-events="all" x="0" y="-9.5" width="115" height="19" style="cursor: pointer; fill: rgb(0, 0, 0); fill-opacity: 0;"/></g><g class="traces" transform="translate(0, 90.5)" style="opacity: 1;"><g class="layers" style="opacity: 0.8;"><g class="legendfill"/><g class="legendlines"><path class="js-line" d="M5,0h30" style="fill: none; stroke: rgb(120, 184, 196); stroke-opacity: 1; stroke-width: 2px;"/></g><g class="legendsymbols"><g class="legendpoints"/></g></g><text class="legendtext user-select-none" text-anchor="start" x="40" y="4.680000000000001" style="font-family: 'Open Sans', verdana, arial, sans-serif; font-size: 12px; fill: rgb(68, 68, 68); fill-opacity: 1; white-space: pre;">2004</text><rect class="legendtoggle" pointer-events="all" x="0" y="-9.5" width="115" height="19" style="cursor: pointer; fill: rgb(0, 0, 0); fill-opacity: 0;"/></g><g class="traces" transform="translate(0, 109.5)" style="opacity: 1;"><g class="layers" style="opacity: 0.8;"><g class="legendfill"/><g class="legendlines"><path class="js-line" d="M5,0h30" style="fill: none; stroke: rgb(102, 172, 181); stroke-opacity: 1; stroke-width: 2px;"/></g><g class="legendsymbols"><g class="legendpoints"/></g></g><text class="legendtext user-select-none" text-anchor="start" x="40" y="4.680000000000001" style="font-family: 'Open Sans', verdana, arial, sans-serif; font-size: 12px; fill: rgb(68, 68, 68); fill-opacity: 1; white-space: pre;">2005</text><rect class="legendtoggle" pointer-events="all" x="0" y="-9.5" width="115" height="19" style="cursor: pointer; fill: rgb(0, 0, 0); fill-opacity: 0;"/></g><g class="traces" transform="translate(0, 128.5)" style="opacity: 1;"><g class="layers" style="opacity: 0.8;"><g class="legendfill"/><g class="legendlines"><path class="js-line" d="M5,0h30" style="fill: none; stroke: rgb(85, 160, 165); stroke-opacity: 1; stroke-width: 2px;"/></g><g class="legendsymbols"><g class="legendpoints"/></g></g><text class="legendtext user-select-none" text-anchor="start" x="40" y="4.680000000000001" style="font-family: 'Open Sans', verdana, arial, sans-serif; font-size: 12px; fill: rgb(68, 68, 68); fill-opacity: 1; white-space: pre;">2006</text><rect class="legendtoggle" pointer-events="all" x="0" y="-9.5" width="115" height="19" style="cursor: pointer; fill: rgb(0, 0, 0); fill-opacity: 0;"/></g><g class="traces" transform="translate(0, 147.5)" style="opacity: 1;"><g class="layers" style="opacity: 0.8;"><g class="legendfill"/><g class="legendlines"><path class="js-line" d="M5,0h30" style="fill: none; stroke: rgb(70, 148, 148); stroke-opacity: 1; stroke-width: 2px;"/></g><g class="legendsymbols"><g class="legendpoints"/></g></g><text class="legendtext user-select-none" text-anchor="start" x="40" y="4.680000000000001" style="font-family: 'Open Sans', verdana, arial, sans-serif; font-size: 12px; fill: rgb(68, 68, 68); fill-opacity: 1; white-space: pre;">2007</text><rect class="legendtoggle" pointer-events="all" x="0" y="-9.5" width="115" height="19" style="cursor: pointer; fill: rgb(0, 0, 0); fill-opacity: 0;"/></g><g class="traces" transform="translate(0, 166.5)" style="opacity: 1;"><g class="layers" style="opacity: 0.8;"><g class="legendfill"/><g class="legendlines"><path class="js-line" d="M5,0h30" style="fill: none; stroke: rgb(56, 134, 130); stroke-opacity: 1; stroke-width: 2px;"/></g><g class="legendsymbols"><g class="legendpoints"/></g></g><text class="legendtext user-select-none" text-anchor="start" x="40" y="4.680000000000001" style="font-family: 'Open Sans', verdana, arial, sans-serif; font-size: 12px; fill: rgb(68, 68, 68); fill-opacity: 1; white-space: pre;">2008</text><rect class="legendtoggle" pointer-events="all" x="0" y="-9.5" width="115" height="19" style="cursor: pointer; fill: rgb(0, 0, 0); fill-opacity: 0;"/></g><g class="traces" transform="translate(0, 185.5)" style="opacity: 1;"><g class="layers" style="opacity: 0.8;"><g class="legendfill"/><g class="legendlines"><path class="js-line" d="M5,0h30" style="fill: none; stroke: rgb(44, 120, 113); stroke-opacity: 1; stroke-width: 2px;"/></g><g class="legendsymbols"><g class="legendpoints"/></g></g><text class="legendtext user-select-none" text-anchor="start" x="40" y="4.680000000000001" style="font-family: 'Open Sans', verdana, arial, sans-serif; font-size: 12px; fill: rgb(68, 68, 68); fill-opacity: 1; white-space: pre;">2009</text><rect class="legendtoggle" pointer-events="all" x="0" y="-9.5" width="115" height="19" style="cursor: pointer; fill: rgb(0, 0, 0); fill-opacity: 0;"/></g><g class="traces" transform="translate(0, 204.5)" style="opacity: 1;"><g class="layers" style="opacity: 0.8;"><g class="legendfill"/><g class="legendlines"><path class="js-line" d="M5,0h30" style="fill: none; stroke: rgb(33, 106, 95); stroke-opacity: 1; stroke-width: 2px;"/></g><g class="legendsymbols"><g class="legendpoints"/></g></g><text class="legendtext user-select-none" text-anchor="start" x="40" y="4.680000000000001" style="font-family: 'Open Sans', verdana, arial, sans-serif; font-size: 12px; fill: rgb(68, 68, 68); fill-opacity: 1; white-space: pre;">2010</text><rect class="legendtoggle" pointer-events="all" x="0" y="-9.5" width="115" height="19" style="cursor: pointer; fill: rgb(0, 0, 0); fill-opacity: 0;"/></g><g class="traces" transform="translate(0, 223.5)" style="opacity: 1;"><g class="layers" style="opacity: 0.8;"><g class="legendfill"/><g class="legendlines"><path class="js-line" d="M5,0h30" style="fill: none; stroke: rgb(24, 90, 77); stroke-opacity: 1; stroke-width: 2px;"/></g><g class="legendsymbols"><g class="legendpoints"/></g></g><text class="legendtext user-select-none" text-anchor="start" x="40" y="4.680000000000001" style="font-family: 'Open Sans', verdana, arial, sans-serif; font-size: 12px; fill: rgb(68, 68, 68); fill-opacity: 1; white-space: pre;">2011</text><rect class="legendtoggle" pointer-events="all" x="0" y="-9.5" width="115" height="19" style="cursor: pointer; fill: rgb(0, 0, 0); fill-opacity: 0;"/></g><g class="traces" transform="translate(0, 242.5)" style="opacity: 1;"><g class="layers" style="opacity: 0.8;"><g class="legendfill"/><g class="legendlines"><path class="js-line" d="M5,0h30" style="fill: none; stroke: rgb(16, 74, 60); stroke-opacity: 1; stroke-width: 2px;"/></g><g class="legendsymbols"><g class="legendpoints"/></g></g><text class="legendtext user-select-none" text-anchor="start" x="40" y="4.680000000000001" style="font-family: 'Open Sans', verdana, arial, sans-serif; font-size: 12px; fill: rgb(68, 68, 68); fill-opacity: 1; white-space: pre;">2012</text><rect class="legendtoggle" pointer-events="all" x="0" y="-9.5" width="115" height="19" style="cursor: pointer; fill: rgb(0, 0, 0); fill-opacity: 0;"/></g><g class="traces" transform="translate(0, 261.5)" style="opacity: 1;"><g class="layers" style="opacity: 0.8;"><g class="legendfill"/><g class="legendlines"><path class="js-line" d="M5,0h30" style="fill: none; stroke: rgb(10, 57, 43); stroke-opacity: 1; stroke-width: 2px;"/></g><g class="legendsymbols"><g class="legendpoints"/></g></g><text class="legendtext user-select-none" text-anchor="start" x="40" y="4.680000000000001" style="font-family: 'Open Sans', verdana, arial, sans-serif; font-size: 12px; fill: rgb(68, 68, 68); fill-opacity: 1; white-space: pre;">2013</text><rect class="legendtoggle" pointer-events="all" x="0" y="-9.5" width="115" height="19" style="cursor: pointer; fill: rgb(0, 0, 0); fill-opacity: 0;"/></g><g class="traces" transform="translate(0, 280.5)" style="opacity: 1;"><g class="layers" style="opacity: 0.8;"><g class="legendfill"/><g class="legendlines"><path class="js-line" d="M5,0h30" style="fill: none; stroke: rgb(5, 38, 27); stroke-opacity: 1; stroke-width: 2px;"/></g><g class="legendsymbols"><g class="legendpoints"/></g></g><text class="legendtext user-select-none" text-anchor="start" x="40" y="4.680000000000001" style="font-family: 'Open Sans', verdana, arial, sans-serif; font-size: 12px; fill: rgb(68, 68, 68); fill-opacity: 1; white-space: pre;">2014</text><rect class="legendtoggle" pointer-events="all" x="0" y="-9.5" width="115" height="19" style="cursor: pointer; fill: rgb(0, 0, 0); fill-opacity: 0;"/></g><g class="traces" transform="translate(0, 299.5)" style="opacity: 1;"><g class="layers" style="opacity: 0.8;"><g class="legendfill"/><g class="legendlines"><path class="js-line" d="M5,0h30" style="fill: none; stroke: rgb(2, 19, 13); stroke-opacity: 1; stroke-width: 2px;"/></g><g class="legendsymbols"><g class="legendpoints"/></g></g><text class="legendtext user-select-none" text-anchor="start" x="40" y="4.680000000000001" style="font-family: 'Open Sans', verdana, arial, sans-serif; font-size: 12px; fill: rgb(68, 68, 68); fill-opacity: 1; white-space: pre;">2015</text><rect class="legendtoggle" pointer-events="all" x="0" y="-9.5" width="115" height="19" style="cursor: pointer; fill: rgb(0, 0, 0); fill-opacity: 0;"/></g><g class="traces" transform="translate(0, 318.5)" style="opacity: 1;"><g class="layers" style="opacity: 0.8;"><g class="legendfill"/><g class="legendlines"><path class="js-line" d="M5,0h30" style="fill: none; stroke: rgb(0, 0, 0); stroke-opacity: 1; stroke-width: 2px;"/></g><g class="legendsymbols"><g class="legendpoints"/></g></g><text class="legendtext user-select-none" text-anchor="start" x="40" y="4.680000000000001" style="font-family: 'Open Sans', verdana, arial, sans-serif; font-size: 12px; fill: rgb(68, 68, 68); fill-opacity: 1; white-space: pre;">2016</text><rect class="legendtoggle" pointer-events="all" x="0" y="-9.5" width="115" height="19" style="cursor: pointer; fill: rgb(0, 0, 0); fill-opacity: 0;"/></g><g class="traces" transform="translate(0, 337.5)" style="opacity: 1;"><g class="layers" style="opacity: 0.8;"><g class="legendfill"/><g class="legendlines"><path class="js-line" d="M5,0h30" style="fill: none; stroke: rgb(127, 127, 127); stroke-opacity: 1; stroke-width: 2px;"/></g><g class="legendsymbols"><g class="legendpoints"/></g></g><text class="legendtext user-select-none" text-anchor="start" x="40" y="4.680000000000001" style="font-family: 'Open Sans', verdana, arial, sans-serif; font-size: 12px; fill: rgb(68, 68, 68); fill-opacity: 1; white-space: pre;">2017</text><rect class="legendtoggle" pointer-events="all" x="0" y="-9.5" width="115" height="19" style="cursor: pointer; fill: rgb(0, 0, 0); fill-opacity: 0;"/></g></g></g><rect class="scrollbar" rx="20" ry="2" width="0" height="0" style="fill: rgb(128, 139, 164); fill-opacity: 1;"/></g><g class="g-xtitle"><text class="xtitle" x="341.5" y="422" text-anchor="middle" style="font-family: 'Open Sans', verdana, arial, sans-serif; font-size: 14px; fill: rgb(68, 68, 68); opacity: 1; font-weight: normal; white-space: pre;">Date</text></g><g class="g-ytitle"><text class="ytitle" transform="rotate(-90,42,235)" x="42" y="235" text-anchor="middle" style="font-family: 'Open Sans', verdana, arial, sans-serif; font-size: 14px; fill: rgb(68, 68, 68); opacity: 1; font-weight: normal; white-space: pre;">Fraction capacity</text></g></g></svg>