<svg class="main-svg" xmlns="http://www.w3.org/2000/svg" xmlns:xlink="http://www.w3.org/1999/xlink" width="700" height="450" style="" viewBox="0 0 700 450"><rect x="0" y="0" width="700" height="450" style="fill: rgb(255, 255, 255); fill-opacity: 1;"/><defs id="defs-b00901"><g class="clips"><clipPath class="plotclip" id="clipb00901xyplot"><rect width="540" height="270"/></clipPath><clipPath class="axesclip" id="clipb00901x"><rect x="80" y="0" width="540" height="450"/></clipPath><clipPath class="axesclip" id="clipb00901y"><rect x="0" y="100" width="700" height="270"/></clipPath><clipPath class="axesclip" id="clipb00901xy"><rect x="80" y="100" width="540" height="270"/></clipPath></g><g class="gradients"/></defs><g class="bglayer"><rect class="bg" x="80" y="100" width="540" height="270" style="fill: rgb(255, 255, 255); fill-opacity: 1; stroke-width: 0;"/></g><g class="layer-below"><g class="imagelayer"/><g class="shapelayer"/></g><g class="cartesianlayer"><g class="subplot xy"><g class="layer-subplot"><g class="shapelayer"/><g class="imagelayer"/></g><g class="gridlayer"><g class="x"><path class="xgrid crisp" d="M0,100v270" transform="translate(232.65,0)" style="stroke: rgb(238, 238, 238); stroke-opacity: 1; stroke-width: 1px;"/><path class="xgrid crisp" d="M0,100v270" transform="translate(385.22,0)" style="stroke: rgb(238, 238, 238); stroke-opacity: 1; stroke-width: 1px;"/><path class="xgrid crisp" d="M0,100v270" transform="translate(537.78,0)" style="stroke: rgb(238, 238, 238); stroke-opacity: 1; stroke-width: 1px;"/></g><g class="y"><path class="ygrid crisp" d="M80,0h540" transform="translate(0,361.06)" style="stroke: rgb(238, 238, 238); stroke-opacity: 1; stroke-width: 1px;"/><path class="ygrid crisp" d="M80,0h540" transform="translate(0,314.57)" style="stroke: rgb(238, 238, 238); stroke-opacity: 1; stroke-width: 1px;"/><path class="ygrid crisp" d="M80,0h540" transform="translate(0,268.09000000000003)" style="stroke: rgb(238, 238, 238); stroke-opacity: 1; stroke-width: 1px;"/><path class="ygrid crisp" d="M80,0h540" transform="translate(0,221.61)" style="stroke: rgb(238, 238, 238); stroke-opacity: 1; stroke-width: 1px;"/><path class="ygrid crisp" d="M80,0h540" transform="translate(0,175.13)" style="stroke: rgb(238, 238, 238); stroke-opacity: 1; stroke-width: 1px;"/><path class="ygrid crisp" d="M80,0h540" transform="translate(0,128.65)" style="stroke: rgb(238, 238, 238); stroke-opacity: 1; stroke-width: 1px;"/></g></g><g class="zerolinelayer"/><path class="xlines-below"/><path class="ylines-below"/><g class="overlines-below"/><g class="xaxislayer-below"/><g class="yaxislayer-below"/><g class="overaxes-below"/><g class="plot" transform="translate(80, 100)" clip-path="url(#clipb00901xyplot)"><g class="imagelayer"/><g class="maplayer"/><g class="barlayer"/><g class="carpetlayer"/><g class="violinlayer"/><g class="boxlayer"/><g class="scatterlayer"><g class="trace scatter trace2922d5" style="stroke-miterlimit: 2; opacity: 1;"><path class="js-line" d="M0,157.79L0.33,155.08L0.67,156.77L0.75,156.77L1.09,155.08L1.5,156.43L1.59,156.6L2.01,157.45L2.09,156.43L2.34,156.94L2.42,156.77L2.51,156.43L2.67,157.11L3.09,157.11L3.17,157.11L3.59,158.63L3.84,156.77L3.93,156.77L5.85,142.4L5.93,138.51L7.6,118.89L7.69,118.55L7.85,117.2L7.94,115.5L8.02,115.67L8.19,114.49L8.27,113.48L9.78,95.21L9.86,94.7L11.45,84.05L11.53,84.05L12.53,76.04L12.62,76.38L12.7,76.21L13.12,73.64L13.2,68.15L14.45,55.19L14.54,55.01L14.71,55.19L14.79,54.49L14.87,53.62L14.96,52.93L15.37,55.53L15.46,55.53L15.71,57.27L15.79,58.31L17.3,67.64L17.38,66.27L17.8,66.1L17.96,67.12L18.05,64.9L18.63,67.29L18.72,62.83L18.8,62.48L19.22,63.17L19.3,63.7L20.47,71.24L20.55,71.07L23.23,90.64L23.31,89.46L25.23,101.97L25.32,102.48L26.9,109.59L26.99,109.92L27.41,112.46L27.49,112.8L28.99,119.06L29.08,118.04L29.24,119.73L29.49,114.49L29.58,113.98L30.58,111.11L30.66,110.94L31.25,111.45L31.33,111.95L32.75,116.86L32.84,116.52L32.92,116.52L33.5,117.7L33.67,116.52L33.76,116.52L33.84,116.35L34.09,117.2L34.17,118.04L34.51,117.03L34.92,117.87L35.01,118.04L35.18,118.55L35.26,117.2L35.68,117.7L35.76,117.7L35.84,117.53L35.93,115.34L36.26,115.67L36.43,115L36.51,114.66L37.18,112.8L37.26,109.59L40.69,49.8L40.77,49.63L40.94,49.28L41.27,50.15L41.36,50.15L41.61,49.63L41.86,50.33L41.94,51.02L42.7,53.97L42.78,53.28L43.03,51.89L43.2,55.19L43.36,52.76L43.45,51.71L43.61,51.02L44.03,52.24L44.2,51.19L44.28,51.54L44.53,52.58L44.62,50.5L45.45,53.45L45.54,53.97L46.79,60.74L46.87,61.09L47.96,66.95L48.04,69.69L52.64,108.4L52.72,108.74L52.97,108.23L53.22,110.26L53.31,110.77L54.73,128.02L54.81,126.61L55.9,141.04L55.98,141.55L57.32,153.9L57.4,148.65L58.24,160.66L58.32,161L59.82,169.46L59.91,169.29L59.99,168.78L60.32,170.47L60.41,170.3L60.49,170.81L60.83,173.01L60.91,173.85L63,184.27L63.08,184.27L64,187.34L64.08,187.62L64.17,187.34L64.42,188.64L64.5,188.17L64.59,189.48L66.09,194.03L66.17,193.66L67.26,190.96L67.34,191.52L67.43,191.99L67.59,191.99L67.68,190.68L68.01,192.17L68.51,186.78L68.6,185.85L69.43,180.92L69.6,181.48L69.68,181.67L69.85,181.76L69.93,181.11L70.02,180.92L70.1,180.64L70.52,181.48L70.69,180.92L70.77,181.29L72.11,176.09L72.19,172.84L73.44,159.82L73.53,159.82L74.11,157.4L74.19,153.41L74.86,149.97L75.11,150.52L75.2,150.71L75.7,152.85L75.78,154.89L77.04,162.33L77.12,163.54L78.87,179.44L78.96,179.44L83.47,228.15L83.8,227.12L83.89,227.31L87.31,256.5L87.73,255.66L87.81,253.62L88.65,250.09L88.98,250.36L89.07,250.92L89.15,250.09L89.65,252.32L89.74,252.78L90.24,250.09L90.32,249.43L90.65,246.18L90.74,245.25L92.66,228.15L92.74,228.15L92.83,228.33L92.99,227.78L93.24,227.68L93.33,227.5L93.83,226.29L94,227.31L94.08,227.78L94.75,230.75L94.92,229.91L95,229.82L95.92,227.78L96,225.54L97,219.41L97.09,219.78L98.17,210.21L98.26,206.86L100.35,145.97L100.43,145.13L101.27,138.16L101.35,137.14L105.11,104.51L105.19,102.18L106.53,87.22L106.78,87.78L106.86,88.8L107.2,91.68L107.28,92.7L110.12,113.99L110.21,113.8L110.29,113.43L110.79,115.66L110.87,116.69L113.63,141.04L113.71,142.44L114.22,140.21L114.47,142.07L114.55,142.72L115.72,149.97L115.8,149.87L115.97,149.87L116.05,150.99L116.47,152.01L117.73,138.53L117.81,138.72L117.89,138.16L118.23,139.83L118.31,139.65L118.39,140.58L118.48,140.86L118.56,137.7L119.23,137.51L119.31,136.95L119.73,137.7L119.9,136.67L119.98,135.84L120.23,136.49L120.48,133.98L120.57,133.79L122.15,105.53L122.24,104.32L123.32,99.12L123.41,99.3L123.74,97.91L124.08,99.12L124.16,99.4L124.41,100.98L124.91,99.58L124.99,99.77L125.16,97.72L125.5,99.12L125.58,99.77L127,106.93L127.08,107.2L127.25,107.86L127.5,106.74L127.58,106.74L127.67,106.18L128.67,102.46L128.75,101.81L129.09,102.18L129.59,99.4L129.67,94.75L131.01,63.14L131.09,61.65L131.76,56.26L131.85,54.12L133.35,45.76L133.43,45.76L133.6,45.76L133.68,44.55L134.69,48.55L134.77,48.27L134.94,48.08L136.61,61.28L136.69,62.12L139.11,83.03L139.2,82.01L140.95,98.93L141.04,98.75L141.12,99.58L143.79,119.57L143.88,114.83L143.96,112.97L144.55,115.2L144.63,115.48L144.71,116.04L144.8,111.57L144.96,112.6L145.05,112.78L148.39,128.86L148.47,128.4L148.56,128.21L148.72,129.52L148.81,129.52L149.06,129.89L149.14,130.35L149.81,132.77L149.98,131.37L150.06,130.91L151.23,119.75L151.31,119.94L151.4,120.78L151.65,118.36L151.81,118.36L151.9,118.36L152.9,111.57L152.98,111.29L154.82,91.49L154.91,90.84L155.99,86.57L156.08,85.08L159.17,66.3L159.25,66.3L159.84,62.96L159.92,58.49L161.17,32.19L161.26,32.56L161.34,32.37L161.76,32.93L162.01,32.37L162.09,27.72L162.93,21.96L163.09,22.7L163.18,22.7L165.94,35.9L166.02,36.74L169.19,60.72L169.28,59.89L169.36,59.33L169.61,61.28L169.7,62.49L173.12,90.84L173.2,91.12L175.96,111.76L176.05,108.6L177.05,70.02L177.13,69L178.8,49.85L178.89,49.48L179.3,48.27L179.39,45.66L180.56,38.04L180.64,37.67L181.64,35.9L181.73,36.28L181.81,34.88L182.56,35.16L182.65,33.21L183.31,24.1L183.65,24.66L183.73,24.84L183.98,25.58L184.07,24.47L184.15,23.91L184.73,16.01L185.15,17.5L185.24,18.15L185.9,21.03L185.99,19.45L186.07,17.31L186.24,16.57L186.57,19.26L186.66,19.08L187.74,25.4L187.83,25.4L188.91,29.68L189,29.68L189.25,29.02L190.67,33.58L190.92,32.74L191,32.19L191.34,31.63L191.5,32L191.59,32.56L192.42,34.88L192.59,34.51L192.67,34.32L193.26,36.28L193.42,34.7L193.51,34.7L194.01,37.48L194.09,38.04L195.18,29.21L195.26,29.4L195.35,29.02L195.76,30.23L195.85,30.23L196.52,26.51L196.77,27.17L196.85,27.35L196.93,27.17L197.02,27.91L197.1,28.65L197.6,30.23L197.69,28.28L197.77,27.72L198.19,23.35L198.6,26.33L198.69,26.98L201.53,50.87L201.61,52.26L205.79,85.08L205.96,83.41L206.04,82.66L208.13,94L208.21,92.52L210.05,75.04L210.13,74.85L211.97,69.37L212.06,69.18L212.64,68.53L212.89,68.63L212.98,68.53L215.65,54.5L215.9,54.68L215.98,54.31L216.9,60.72L217.32,59.7L217.4,58.31L217.49,58.49L217.74,57.94L217.99,58.12L218.07,57.66L218.49,56.91L218.57,56.73L220.08,44.55L220.16,43.99L222.33,24.1L222.42,18.52L222.58,13.5L223.17,18.15L223.25,18.33L223.34,17.96L223.59,19.64L223.67,20.01L223.75,19.82L223.84,20.66L223.92,21.4L224.84,25.96L224.92,25.03L225.01,22.15L225.42,21.4L225.59,22.52L225.68,22.89L227.1,29.4L227.18,29.02L227.26,29.21L230.27,55.15L230.35,54.31L233.95,88.8L234.03,90.29L235.53,103.3L235.62,104.51L237.21,121.8L237.37,120.78L237.46,120.78L240.05,133.61L240.13,133.42L240.21,133.23L240.8,135.93L240.88,136.49L242.55,142.53L242.64,142.07L242.72,142.25L243.14,143.55L243.22,144.11L243.64,145.97L243.97,144.39L244.06,143.74L244.89,145.97L244.98,145.41L245.06,143.37L246.15,138.16L246.23,138.72L246.48,139L246.56,139.83L246.81,137.7L246.9,136.86L247.23,130.35L247.32,127.19L250.57,59.7L250.66,58.86L252.08,40.18L252.16,39.06L253.33,33.39L253.41,33.77L254,34.7L254.08,30.42L254.5,26.79L255,27.35L255.09,27.72L256.67,35.72L256.76,36.65L256.84,36.28L257.17,38.04L257.26,38.6L257.76,42.78L257.84,43.9L260.02,57.94L260.1,57.94L261.1,64.16L261.19,61.1L261.6,49.48L262.02,50.68L262.1,51.15L262.44,53.47L262.94,52.54L263.02,52.73L264.86,69.18L264.95,68.16L265.03,60.26L265.78,55.05L266.03,56.26L266.11,56.54L266.53,57.47L266.7,55.7L266.78,54.68L266.95,54.12L267.28,55.7L267.37,56.08L268.96,66.95L269.04,67.51L269.46,64.54L269.87,65.37L269.96,65.37L271.04,62.68L271.13,62.96L271.21,63.88L271.55,65.37L271.63,64.91L271.71,63.51L272.97,55.89L273.05,49.48L273.97,36.93L274.05,37.11L274.14,36.74L275.22,26.98L275.31,26.33L275.56,24.66L275.89,26.14L275.97,26.51L276.89,28.28L276.98,28.09L277.06,26.79L278.73,29.4L278.81,29.02L279.48,29.68L279.57,28.47L280.4,25.21L280.49,24.47L281.32,22.52L281.4,22.89L281.57,22.7L281.91,23.54L282.07,23.07L282.16,22.52L282.24,22.7L282.49,21.77L282.57,21.4L283.08,20.29L283.24,21.77L283.33,21.96L283.83,24.28L284.33,23.35L284.41,23.35L285,25.77L285.16,25.21L285.25,23.54L285.5,21.4L285.83,24.84L285.92,25.03L287.34,34.51L287.42,34.97L287.67,36.93L287.75,37.86L288.17,41.2L288.42,38.41L288.51,37.86L288.76,38.23L290.51,27.72L290.68,28.84L290.76,28.84L291.18,31.16L291.51,30.05L291.6,29.02L291.68,29.4L291.77,24.66L292.1,22.15L292.6,23.35L292.68,24.1L294.1,36.46L294.27,35.9L294.36,35.53L298.7,77.55L298.78,78.29L299.45,83.03L299.7,81.83L299.79,81.83L300.2,79.97L300.54,80.99L300.62,81.83L301.62,83.5L301.71,83.41L301.79,82.2L303.38,75.69L303.55,75.88L303.63,75.69L305.05,70.21L305.13,69.83L306.3,66.95L306.39,67.14L306.47,67.32L307.31,64.07L307.39,62.68L308.48,58.49L308.56,57.94L309.06,57.28L309.14,56.73L309.31,56.54L309.65,57.28L309.73,55.89L311.23,40.64L311.32,39.25L312.82,17.5L313.32,20.01L313.41,20.84L314.41,24.84L314.49,25.4L317.17,36.46L317.25,37.11L318.75,45.29L318.84,44.36L327.86,127.01L328.03,125.52L328.11,121.8L328.28,121.43L328.36,122.26L328.44,123.29L329.11,128.4L329.45,127.01L329.53,127.01L330.45,134.44L330.53,135.28L330.87,137.97L331.29,136.12L331.37,135.84L331.79,136.3L331.87,136.12L331.95,135.28L332.12,135L332.37,135.93L332.46,136.3L333.12,138.53L333.37,137.32L333.46,137.51L333.79,138.35L334.04,137.14L334.13,135.46L334.71,132.58L334.96,133.61L335.05,134.26L336.05,137.51L336.13,137.32L336.22,136.86L336.47,137.51L336.63,135.84L336.8,136.3L336.88,136.3L337.13,135.84L337.22,135.09L337.3,135.65L337.8,133.98L337.89,133.42L339.98,127.19L340.06,127.01L340.23,127.19L340.31,125.8L340.39,124.68L341.06,119.38L341.14,110.27L342.4,72.07L342.48,71.23L344.57,52.26L344.65,50.31L346.24,37.3L346.33,36.93L346.41,36.74L346.74,37.3L346.91,37.3L346.99,34.97L347.83,28.09L348,29.02L348.08,29.86L350.09,43.34L350.34,41.02L350.42,41.2L350.92,43.71L351,44.55L353.43,64.16L353.51,64.72L355.43,80.34L355.6,78.76L355.68,73.46L356.69,60.07L356.77,59.05L357.27,58.12L357.52,59.05L357.6,59.7L357.77,59.89L357.86,59.14L357.94,57.1L358.86,52.45L359.11,53.1L359.19,53.29L359.44,53.94L359.61,53.47L359.69,51.89L360.11,49.66L360.53,50.68L360.61,51.06L362.45,40.83L362.79,41.95L362.87,42.6L363.87,33.21L363.95,33.21L364.12,32.37L364.21,26.98L364.62,23.91L365.04,24.66L365.12,25.58L365.29,26.14L365.38,25.58L365.46,23.73L365.79,25.4L365.88,23.73L366.88,27.17L366.96,27.91L367.13,27.72L368.22,35.72L368.55,34.14L368.63,33.95L370.3,42.22L370.39,42.97L371.56,48.08L371.64,48.73L372.48,51.71L372.56,51.34L374.06,58.49L374.15,59.05L375.49,65.74L375.57,65.28L375.65,62.12L375.99,60.91L376.57,61.28L376.65,61.28L376.91,61.47L376.99,60.72L377.07,59.33L377.74,57.28L378.08,58.31L378.16,59.05L378.91,62.68L379.08,61.28L379.16,60.54L380.33,63.88L380.41,64.54L382.67,88.43L382.75,89.45L384.76,106.55L385.09,106.37L385.18,105.72L385.26,105.35L385.51,107.39L385.59,108.23L390.44,140.02L390.52,139.83L391.69,136.67L391.78,137.14L393.53,146.99L393.62,147.27L395.29,155.73L395.45,155.27L395.54,154.71L396.62,149.13L396.71,149.5L396.79,149.87L397.63,154.89L397.88,154.06L397.96,153.69L398.55,151.83L398.8,152.01L398.88,152.76L399.21,154.61L399.46,151.18L399.55,150.52L399.97,149.69L400.05,147.18L401.55,142.25L401.64,141.41L405.48,110.64L405.56,110.64L406.73,105.72L406.82,106.18L407.49,110.74L408.07,110.09L408.15,109.71L408.49,112.32L408.74,107.2L408.82,104.32L410.41,82.57L410.49,77.55L411.58,69L411.66,67.98L412.58,61.1L412.67,61.75L413,64.07L413.08,64.54L416.51,89.64L416.59,90.47L421.69,124.77L421.77,125.61L423.61,136.95L423.69,137.32L424.28,141.41L424.36,139.37L424.45,137.51L424.53,137.32L424.86,138.35L424.95,138.72L425.03,138.53L425.12,139.37L425.37,139.37L425.45,139.56L426.37,141.23L426.45,141.41L429.04,121.24L429.21,121.61L429.29,121.89L429.71,122.82L430.04,121.8L430.13,121.61L431.3,115.29L431.38,115.01L431.63,113.15L431.72,112.6L431.8,112.32L432.05,113.34L432.13,113.99L433.14,115.48L433.22,115.01L434.39,109.9L434.47,110.09L434.72,98.09L434.81,94L436.23,67.51L436.31,66.39L438.9,42.22L439.15,42.78L439.24,42.13L439.57,41.76L439.99,43.71L440.07,44.18L441.32,50.31L441.41,50.87L443.58,64.07L443.66,62.86L443.75,62.49L444,64.16L444.08,64.72L445.92,81.18L446,83.5L446.09,76.34L446.76,79.97L446.84,82.66L449.93,107.2L450.01,107.76L451.1,112.97L451.18,113.8L451.27,113.99L451.35,113.43L451.43,112.5L451.85,114.83L451.94,111.48L452.52,109.62L452.77,110.64L452.85,112.13L453.94,116.87L454.28,116.22L454.36,116.31L454.53,117.06L454.78,116.04L454.86,113.8L455.11,113.99L455.19,113.8L455.28,112.97L455.61,111.48L455.7,109.71L455.86,109.44L455.95,105.9L457.12,94.75L457.2,93.35L458.54,87.13L458.62,87.22L458.7,87.59L460.04,79.32L460.12,79.13L462.46,70.39L462.63,71.04L462.71,71.41L462.8,71.23L463.05,72.25L463.13,72.81L464.47,78.29L464.55,78.76L464.72,79.13L464.8,78.94L464.89,77.55L465.89,69L465.97,67.51L467.56,57.28L467.73,57.94L467.81,58.12L469.23,63.33L469.31,64.07L469.4,63.88L469.48,64.91L469.57,65.56L470.32,69.18L470.4,68.63L470.48,66.3L470.57,66.12L470.9,66.95L470.99,68.35L471.07,67.98L471.4,69.37L471.49,69.83L471.65,69L472.57,72.25L472.66,70.21L472.91,70.58L472.99,69L473.07,68.81L473.41,69.83L473.49,70.02L473.74,68.16L474.16,69L474.24,70.21L476.33,86.94L476.42,86.1L480.43,116.69L480.51,114.46L480.59,111.76L482.52,127.47L482.6,128.49L482.85,129.89L482.93,128.86L483.02,127.84L484.69,137.32L484.94,136.3L485.02,136.49L486.78,144.11L486.86,143.37L488.03,138.35L488.11,137.97L488.53,136.49L488.87,137.32L488.95,138.16L489.12,136.86L489.28,137.7L489.37,138.35L490.12,136.12L490.2,136.95L490.29,137.7L490.45,137.51L490.87,140.39L491.04,139.65L491.12,138.53L491.96,136.67L492.04,136.67L495.05,110.74L495.13,110.46L497.39,96.05L497.47,95.86L497.97,96.42L498.14,95.58L498.22,95.58L498.47,95.21L498.56,94.56L499.64,91.12L499.73,91.49L500.98,99.12L501.06,99.95L502.9,114.64L502.99,115.66L505.99,145.27L506.08,145.61L506.33,147.3L506.41,148.48L508.17,162.01L508.25,162.86L511.34,193.16L511.43,192.99L512.09,198.5L512.18,199.49L513.18,206.4L513.26,207.23L516.1,223.36L516.19,221.55L516.27,220.23L516.86,219.24L517.02,220.23L517.11,220.89L517.27,220.23L517.52,221.71L517.78,221.22L517.86,222.04L518.53,223.69L518.69,223.03L518.78,223.03L520.78,214.31L520.87,214.96L520.95,214.31L521.53,215.46L521.62,215.79L521.95,216.61L522.12,214.96L522.2,214.47L523.71,205.75L523.79,204.59L524.04,202.62L524.63,203.28L524.71,203.44L525.13,201.14L525.46,202.45L525.55,202.78L525.96,203.44L526.05,202.12L526.13,200.64L526.8,183.98L526.88,181.63L528.05,166.75L528.14,165.4L528.64,162.69L528.72,162.01L530.98,144.59L531.06,142.73L533.15,127.34L533.23,127.51L533.65,126.67L533.82,127.68L533.9,128.53L534.07,127.51L534.49,129.71L534.57,129.54L534.65,129.37L534.82,130.22L535.07,130.22L535.15,130.9L539.08,156.1L539.16,156.94L540,161.34" style="vector-effect: non-scaling-stroke; fill: none; stroke: rgb(31, 119, 180); stroke-opacity: 1; stroke-width: 2px; opacity: 1;"/><g class="points"/></g></g></g><g class="overplot"/><path class="xlines-above crisp" style="fill: none;"/><path class="ylines-above crisp" style="fill: none;"/><g class="overlines-above"/><g class="xaxislayer-above"><g class="xtick"><text text-anchor="middle" x="0" y="383" transform="translate(80,0)" style="font-family: 'Open Sans', verdana, arial, sans-serif; font-size: 12px; fill: rgb(68, 68, 68); fill-opacity: 1; white-space: pre;">2000</text></g><g class="xtick"><text text-anchor="middle" x="0" y="383" transform="translate(232.65,0)" style="font-family: 'Open Sans', verdana, arial, sans-serif; font-size: 12px; fill: rgb(68, 68, 68); fill-opacity: 1; white-space: pre;">2005</text></g><g class="xtick"><text text-anchor="middle" x="0" y="383" transform="translate(385.22,0)" style="font-family: 'Open Sans', verdana, arial, sans-serif; font-size: 12px; fill: rgb(68, 68, 68); fill-opacity: 1; white-space: pre;">2010</text></g><g class="xtick"><text text-anchor="middle" x="0" y="383" transform="translate(537.78,0)" style="font-family: 'Open Sans', verdana, arial, sans-serif; font-size: 12px; fill: rgb(68, 68, 68); fill-opacity: 1; white-space: pre;">2015</text></g></g><g class="yaxislayer-above"><g class="ytick"><text text-anchor="end" x="79" y="4.199999999999999" transform="translate(0,361.06)" style="font-family: 'Open Sans', verdana, arial, sans-serif; font-size: 12px; fill: rgb(68, 68, 68); fill-opacity: 1; white-space: pre;">0.75</text></g><g class="ytick"><text text-anchor="end" x="79" y="4.199999999999999" transform="translate(0,314.57)" style="font-family: 'Open Sans', verdana, arial, sans-serif; font-size: 12px; fill: rgb(68, 68, 68); fill-opacity: 1; white-space: pre;">0.8</text></g><g class="ytick"><text text-anchor="end" x="79" y="4.199999999999999" transform="translate(0,268.09000000000003)" style="font-family: 'Open Sans', verdana, arial, sans-serif; font-size: 12px; fill: rgb(68, 68, 68); fill-opacity: 1; white-space: pre;">0.85</text></g><g class="ytick"><text text-anchor="end" x="79" y="4.199999999999999" transform="translate(0,221.61)" style="font-family: 'Open Sans', verdana, arial, sans-serif; font-size: 12px; fill: rgb(68, 68, 68); fill-opacity: 1; white-space: pre;">0.9</text></g><g class="ytick"><text text-anchor="end" x="79" y="4.199999999999999" transform="translate(0,175.13)" style="font-family: 'Open Sans', verdana, arial, sans-serif; font-size: 12px; fill: rgb(68, 68, 68); fill-opacity: 1; white-space: pre;">0.95</text></g><g class="ytick"><text text-anchor="end" x="79" y="4.199999999999999" transform="translate(0,128.65)" style="font-family: 'Open Sans', verdana, arial, sans-serif; font-size: 12px; fill: rgb(68, 68, 68); fill-opacity: 1; white-space: pre;">1</text></g></g><g class="overaxes-above"/></g></g><g class="polarlayer"/><g class="ternarylayer"/><g class="geolayer"/><g class="pielayer"/><g class="glimages"/><defs id="topdefs-b00901"><g class="clips"/></defs><g class="layer-above"><g class="imagelayer"/><g class="shapelayer"/></g><g class="infolayer"><g class="g-gtitle"><text class="gtitle" x="350" y="50" text-anchor="middle" style="font-family: 'Open Sans', verdana, arial, sans-serif; font-size: 17px; fill: rgb(68, 68, 68); opacity: 1; font-weight: normal; white-space: pre;">Fraction capacity filled over time</text></g><g class="g-xtitle"><text class="xtitle" x="350" y="422" text-anchor="middle" style="font-family: 'Open Sans', verdana, arial, sans-serif; font-size: 14px; fill: rgb(68, 68, 68); opacity: 1; font-weight: normal; white-space: pre;">Date</text></g><g class="g-ytitle"><text class="ytitle" transform="rotate(-90,42,235)" x="42" y="235" text-anchor="middle" style="font-family: 'Open Sans', verdana, arial, sans-serif; font-size: 14px; fill: rgb(68, 68, 68); opacity: 1; font-weight: normal; white-space: pre;">Fraction capacity</text></g></g></svg>